<svg width="24" height="24" viewBox="0 0 24 24" fill="none" xmlns="http://www.w3.org/2000/svg">
<path fill-rule="evenodd" clip-rule="evenodd" d="M5.17157 3.17157C4 4.34315 4 6.22876 4 10V14C4 17.7712 4 19.6569 5.17157 20.8284C6.34315 22 8.22876 22 12 22C15.7712 22 17.6569 22 18.8284 20.8284C20 19.6569 20 17.7712 20 14V10C20 6.22876 20 4.34315 18.8284 3.17157C17.6569 2 15.7712 2 12 2C8.22876 2 6.34315 2 5.17157 3.17157Z" fill="#CCD1D7"/>
<path d="M8 15L14 15M8 12L12 12M8 18H12" stroke="#404AD9" stroke-width="2" stroke-linecap="round"/>
<path d="M18 3L18 9" stroke="#404AD9" stroke-width="2" stroke-linecap="round"/>
<path d="M21 6L15 6" stroke="#404AD9" stroke-width="2" stroke-linecap="round"/>
</svg>
