<svg width="30" height="30" viewBox="0 0 30 30" fill="none" xmlns="http://www.w3.org/2000/svg">
    <path d="M5 9.25C5 9.0143 5 8.89645 5.07322 8.82322C5.14645 8.75 5.2643 8.75 5.5 8.75H24.5C24.7357 8.75 24.8536 8.75 24.9268 8.82322C25 8.89645 25 9.0143 25 9.25V9.69098C25 9.84134 25 9.91651 24.9627 9.97692C24.9253 10.0373 24.8576 10.0712 24.7222 10.1389C23.639 10.6805 23.0974 10.9513 22.7987 11.4346C22.5 11.9179 22.5 12.5193 22.5 13.7221V21C22.5 22.8856 22.5 23.8284 21.9142 24.4142C21.3284 25 20.3856 25 18.5 25H11.5C9.61438 25 8.67157 25 8.08579 24.4142C7.5 23.8284 7.5 22.8856 7.5 21V13.7221C7.5 12.5193 7.5 11.9179 7.2013 11.4346C6.9026 10.9513 6.36099 10.6805 5.27778 10.1389C5.14238 10.0712 5.07467 10.0373 5.03734 9.97692C5 9.91651 5 9.84134 5 9.69098V9.25Z" fill="#673AB7" fill-opacity="0.3" />
    <path d="M12.5852 5.46324C12.7276 5.33034 13.0415 5.21291 13.4781 5.12915C13.9147 5.0454 14.4497 5 15 5C15.5503 5 16.0853 5.0454 16.5219 5.12915C16.9585 5.21291 17.2724 5.33034 17.4148 5.46324" stroke="#673AB7" stroke-linecap="round" />
    <rect x="17.5" y="13.75" width="1.25" height="7.5" rx="0.625" fill="#673AB7" />
    <rect x="11.25" y="13.75" width="1.25" height="7.5" rx="0.625" fill="#673AB7" />
</svg>