<svg width="25" height="25" viewBox="0 0 30 30" fill="none" xmlns="http://www.w3.org/2000/svg">
    <path d="M17.1716 6.57843L7.95321 15.7968C7.72845 16.0216 7.61607 16.1339 7.54454 16.2729C7.47301 16.4119 7.44689 16.5687 7.39463 16.8822L6.36508 23.0595C6.31262 23.3743 6.28639 23.5317 6.37736 23.6226C6.46833 23.7136 6.62571 23.6874 6.94048 23.6349L13.1178 22.6054C13.4313 22.5531 13.5881 22.527 13.7271 22.4555C13.8661 22.3839 13.9784 22.2716 14.2032 22.0468L23.4216 12.8284L23.4216 12.8284C24.7549 11.4951 25.4216 10.8284 25.4216 10C25.4216 9.17157 24.7549 8.50491 23.4216 7.17158L23.4216 7.17157L22.8284 6.57843C21.4951 5.24509 20.8284 4.57843 20 4.57843C19.1716 4.57843 18.5049 5.24509 17.1716 6.57843Z" fill="#673AB7" fill-opacity="0.3" />
    <path d="M15.5429 8.20711L7.95321 15.7968C7.72845 16.0216 7.61607 16.1339 7.54454 16.2729C7.47301 16.4119 7.44689 16.5687 7.39463 16.8822L6.36508 23.0595C6.31262 23.3743 6.28639 23.5317 6.37736 23.6226C6.46833 23.7136 6.62571 23.6874 6.94048 23.6349L13.1178 22.6054L13.1178 22.6054C13.4313 22.5531 13.5881 22.527 13.7271 22.4555C13.8661 22.3839 13.9784 22.2716 14.2032 22.0468L21.7929 14.4571C22.1262 14.1238 22.2929 13.9571 22.2929 13.75C22.2929 13.5429 22.1262 13.3762 21.7929 13.0429L16.9571 8.20711C16.6238 7.87377 16.4571 7.70711 16.25 7.70711C16.0429 7.70711 15.8762 7.87377 15.5429 8.20711Z" fill="#5E35B1" />
</svg>