<svg width="40" height="40" viewBox="0 0 40 40" fill="none" xmlns="http://www.w3.org/2000/svg">
<circle cx="20" cy="20" r="18" fill="white" stroke="#B39DDB" stroke-width="2"/>
<path opacity="0.4" d="M28.2845 11.521C31.5221 14.7586 33.4415 18.6172 33.9804 22.1874C34.5193 25.7583 33.6746 28.9304 31.5525 31.0525C29.4304 33.1746 26.2583 34.0193 22.6874 33.4804C19.1172 32.9415 15.2586 31.0221 12.021 27.7845C8.78346 24.5469 6.864 20.6884 6.32515 17.1181C5.78621 13.5472 6.63094 10.3751 8.75305 8.25304C10.8752 6.13093 14.0472 5.2862 17.6181 5.82514C21.1884 6.36399 25.0469 8.28345 28.2845 11.521Z" stroke="#1565C0" stroke-width="3"/>
<path opacity="0.4" d="M11.841 11.7599C8.60341 14.9975 6.68395 18.8561 6.1451 22.4263C5.60616 25.9972 6.45089 29.1693 8.573 31.2914C10.6951 33.4135 13.8672 34.2582 17.438 33.7193C21.0083 33.1804 24.8669 31.261 28.1044 28.0234C31.342 24.7858 33.2615 20.9272 33.8003 17.357C34.3393 13.7861 33.4945 10.614 31.3724 8.49193C29.2503 6.36982 26.0783 5.52509 22.5074 6.06403C18.9371 6.60288 15.0786 8.52234 11.841 11.7599Z" stroke="#4527A0" stroke-width="3"/>
</svg>
