
<svg width="24" height="24" viewBox="0 0 24 24" fill="none" xmlns="http://www.w3.org/2000/svg">
<path fill-rule="evenodd" clip-rule="evenodd" d="M5.17157 3.17157C4 4.34315 4 6.22876 4 10V14C4 17.7712 4 19.6569 5.17157 20.8284C6.34315 22 8.22876 22 12 22C15.7712 22 17.6569 22 18.8284 20.8284C20 19.6569 20 17.7712 20 14V10C20 6.22876 20 4.34315 18.8284 3.17157C17.6569 2 15.7712 2 12 2C8.22876 2 6.34315 2 5.17157 3.17157Z" fill="#CCD1D7"/>
<path d="M8 15L14 15M8 12L12 12M8 18H12" stroke="#673AB7" stroke-width="2" stroke-linecap="round"/>
<path d="M18.5 5C18.5 5.82843 17.8284 6.5 17 6.5C16.1716 6.5 15.5 5.82843 15.5 5C15.5 4.17157 16.1716 3.5 17 3.5C17.8284 3.5 18.5 4.17157 18.5 5Z" stroke="#673AB7" stroke-linecap="round"/>
<path d="M18.634 5C18.7666 4.77032 18.985 4.60272 19.2412 4.53407C19.4974 4.46543 19.7703 4.50137 20 4.63397C20.2297 4.76658 20.3973 4.985 20.4659 5.24118C20.5346 5.49736 20.4986 5.77032 20.366 6C20.2334 6.22968 20.015 6.39728 19.7588 6.46593C19.5026 6.53457 19.2297 6.49863 19 6.36603C18.7703 6.23342 18.6027 6.015 18.5341 5.75882C18.4654 5.50264 18.5014 5.22968 18.634 5L18.634 5Z" stroke="#673AB7"/>
<path d="M13.634 5C13.7666 4.77032 13.985 4.60272 14.2412 4.53407C14.4974 4.46543 14.7703 4.50137 15 4.63397C15.2297 4.76658 15.3973 4.985 15.4659 5.24118C15.5346 5.49736 15.4986 5.77032 15.366 6C15.2334 6.22968 15.015 6.39728 14.7588 6.46593C14.5026 6.53457 14.2297 6.49863 14 6.36603C13.7703 6.23342 13.6027 6.015 13.5341 5.75882C13.4654 5.50264 13.5014 5.22968 13.634 5L13.634 5Z" stroke="#673AB7"/>
<path d="M19.3083 10L18.8422 9.81903L18.5778 10.5H19.3083V10ZM21.1215 8.93975L20.6926 9.19672L21.1215 8.93975ZM18.3906 8.35527L18.0882 7.9571L17.5099 8.39633L18.1266 8.77985L18.3906 8.35527ZM19.3063 9.52377L18.8377 9.69801L18.8377 9.69801L19.3063 9.52377ZM20.3674 9.5H19.3083V10.5H20.3674V9.5ZM20.6926 9.19672C20.7198 9.24218 20.7212 9.27087 20.7201 9.28593C20.7187 9.30363 20.7115 9.32966 20.6874 9.36141C20.636 9.42933 20.5218 9.5 20.3674 9.5V10.5C20.8145 10.5 21.232 10.2985 21.4845 9.96532C21.7498 9.61517 21.818 9.12946 21.5504 8.68277L20.6926 9.19672ZM19.5002 8.5C20.1146 8.5 20.4669 8.82013 20.6926 9.19672L21.5504 8.68277C21.2019 8.10111 20.5655 7.5 19.5002 7.5V8.5ZM18.6931 8.75343C18.8853 8.60742 19.1412 8.5 19.5002 8.5V7.5C18.9193 7.5 18.4516 7.68108 18.0882 7.9571L18.6931 8.75343ZM18.1266 8.77985C18.4928 9.00766 18.7095 9.35329 18.8377 9.69801L19.775 9.34953C19.5973 8.87161 19.2669 8.31143 18.6547 7.93068L18.1266 8.77985ZM18.8377 9.69801C18.849 9.72856 18.8519 9.75199 18.8518 9.76915C18.8517 9.78642 18.8486 9.80274 18.8422 9.81903L19.7744 10.181C19.8747 9.92281 19.8803 9.63298 19.775 9.34953L18.8377 9.69801Z" fill="#673AB7"/>
<path d="M15.61 8.35526L15.874 8.77984L16.4907 8.39633L15.9124 7.95709L15.61 8.35526ZM12.8791 8.93974L13.308 9.19672L13.308 9.19672L12.8791 8.93974ZM14.6922 10V10.5H15.4227L15.1583 9.81903L14.6922 10ZM14.6943 9.52377L14.2256 9.34953L14.2256 9.34953L14.6943 9.52377ZM14.5004 8.5C14.8594 8.5 15.1153 8.60742 15.3075 8.75343L15.9124 7.95709C15.549 7.68107 15.0813 7.5 14.5004 7.5V8.5ZM13.308 9.19672C13.5336 8.82013 13.886 8.5 14.5004 8.5V7.5C13.4351 7.5 12.7987 8.1011 12.4502 8.68277L13.308 9.19672ZM13.6332 9.5C13.4787 9.5 13.3646 9.42933 13.3132 9.3614C13.2891 9.32966 13.2819 9.30363 13.2805 9.28593C13.2794 9.27087 13.2808 9.24218 13.308 9.19672L12.4502 8.68277C12.1826 9.12945 12.2508 9.61516 12.5161 9.96532C12.7686 10.2985 13.1861 10.5 13.6332 10.5V9.5ZM14.6922 9.5H13.6332V10.5H14.6922V9.5ZM15.1583 9.81903C15.152 9.80274 15.1488 9.78642 15.1488 9.76915C15.1487 9.75199 15.1516 9.72856 15.1629 9.69801L14.2256 9.34953C14.1202 9.63297 14.1259 9.92281 14.2261 10.181L15.1583 9.81903ZM15.1629 9.69801C15.2911 9.35328 15.5077 9.00765 15.874 8.77984L15.3459 7.93068C14.7337 8.31142 14.4033 8.87161 14.2256 9.34953L15.1629 9.69801Z" fill="#673AB7"/>
<path d="M17 8C18.4338 8 19.0453 8.82236 19.3061 9.52377C19.4986 10.0414 19.0523 10.5 18.5 10.5H15.5C14.9477 10.5 14.5014 10.0414 14.6939 9.52377C14.9547 8.82236 15.5662 8 17 8Z" stroke="#673AB7" stroke-linecap="round"/>
</svg>
