<svg width="69" height="69" viewBox="0 0 69 69" fill="none" xmlns="http://www.w3.org/2000/svg">
<path d="M11.5 20.625C11.5 20.3893 11.5 20.2714 11.5732 20.1982C11.6464 20.125 11.7643 20.125 12 20.125H57C57.2357 20.125 57.3536 20.125 57.4268 20.1982C57.5 20.2714 57.5 20.3893 57.5 20.625V22.691C57.5 22.8413 57.5 22.9165 57.4627 22.9769C57.4253 23.0373 57.3581 23.071 57.2236 23.1382L53.9611 24.7694C52.8853 25.3073 52.3474 25.5763 52.0487 26.0596C51.75 26.5429 51.75 27.1443 51.75 28.3471V53.5C51.75 55.3856 51.75 56.3284 51.1642 56.9142C50.5784 57.5 49.6356 57.5 47.75 57.5H21.25C19.3644 57.5 18.4216 57.5 17.8358 56.9142C17.25 56.3284 17.25 55.3856 17.25 53.5V28.3471C17.25 27.1443 17.25 26.5429 16.9513 26.0596C16.6526 25.5763 16.1147 25.3073 15.0389 24.7694L11.7764 23.1382C11.6419 23.071 11.5747 23.0373 11.5373 22.9769C11.5 22.9165 11.5 22.8413 11.5 22.691V20.625Z" fill="#2A4157" fill-opacity="0.24"/>
<path d="M28.9459 12.5654C29.2735 12.2598 29.9954 11.9897 30.9996 11.7971C32.0038 11.6044 33.2342 11.5 34.5 11.5C35.7658 11.5 36.9962 11.6044 38.0004 11.7971C39.0046 11.9897 39.7265 12.2598 40.0541 12.5654" stroke="#252B4B" stroke-linecap="round"/>
<rect x="40.25" y="31.625" width="2.875" height="17.25" rx="1.4375" fill="#252B4B"/>
<rect x="25.875" y="31.625" width="2.875" height="17.25" rx="1.4375" fill="#252B4B"/>
</svg>
