<svg width="24" height="24" viewBox="0 0 24 24" fill="none" xmlns="http://www.w3.org/2000/svg">
<circle cx="15.9004" cy="9.20001" r="3.5" fill="#252B4B"/>
<path fill-rule="evenodd" clip-rule="evenodd" d="M15.5418 13.8C12.3877 13.8 9.79585 15.8631 9.50276 18.5008C9.47226 18.7753 9.69902 19 9.97516 19H21.1085C21.3846 19 21.6114 18.7753 21.5809 18.5008C21.2878 15.8631 18.6959 13.8 15.5418 13.8Z" fill="#2A4157" fill-opacity="0.24"/>
<circle cx="9.7998" cy="8" r="4" fill="#252B4B"/>
<path fill-rule="evenodd" clip-rule="evenodd" d="M10.4782 13C6.80847 13 3.79831 15.4204 3.5021 18.5004C3.47567 18.7753 3.70204 19 3.97818 19H16.9782C17.2543 19 17.4807 18.7753 17.4543 18.5004C17.158 15.4204 14.1479 13 10.4782 13Z" fill="#2A4157" fill-opacity="0.24"/>
</svg>
