<svg width="184" height="40" viewBox="0 0 184 40" fill="none" xmlns="http://www.w3.org/2000/svg">
<rect width="184" height="40" rx="8" fill="white"/>
<ellipse cx="30.0001" cy="16.6667" rx="3.33333" ry="3.33333" fill="#252B4B"/>
<path fill-rule="evenodd" clip-rule="evenodd" d="M30 20.8333C26.9748 20.8333 24.4875 22.8072 24.1953 25.3343C24.1636 25.6086 24.3905 25.8333 24.6667 25.8333H35.3333C35.6095 25.8333 35.8363 25.6086 35.8046 25.3343C35.5125 22.8072 33.0252 20.8333 30 20.8333Z" fill="#CCD1D7"/>
<path d="M53.7734 21.9922L55.749 15.0469H56.7061L56.1523 17.7471L54.0264 25H53.0762L53.7734 21.9922ZM51.7295 15.0469L53.3018 21.8555L53.7734 25H52.8301L50.417 15.0469H51.7295ZM59.2627 21.8486L60.8008 15.0469H62.1201L59.7139 25H58.7705L59.2627 21.8486ZM56.8496 15.0469L58.7705 21.9922L59.4678 25H58.5176L56.4668 17.7471L55.9062 15.0469H56.8496ZM66.2422 25.1367C65.7272 25.1367 65.2601 25.0501 64.8408 24.877C64.4261 24.6992 64.0684 24.4508 63.7676 24.1318C63.4714 23.8128 63.2435 23.4346 63.084 22.9971C62.9245 22.5596 62.8447 22.0811 62.8447 21.5615V21.2744C62.8447 20.6729 62.9336 20.1374 63.1113 19.668C63.2891 19.194 63.5306 18.793 63.8359 18.4648C64.1413 18.1367 64.4876 17.8883 64.875 17.7197C65.2624 17.5511 65.6634 17.4668 66.0781 17.4668C66.6068 17.4668 67.0625 17.5579 67.4453 17.7402C67.8327 17.9225 68.1494 18.1777 68.3955 18.5059C68.6416 18.8294 68.8239 19.2122 68.9424 19.6543C69.0609 20.0918 69.1201 20.5703 69.1201 21.0898V21.6572H63.5967V20.625H67.8555V20.5293C67.8372 20.2012 67.7689 19.8822 67.6504 19.5723C67.5365 19.2624 67.3542 19.0072 67.1035 18.8066C66.8529 18.6061 66.5111 18.5059 66.0781 18.5059C65.791 18.5059 65.5267 18.5674 65.2852 18.6904C65.0436 18.8089 64.8363 18.9867 64.6631 19.2236C64.4899 19.4606 64.3555 19.75 64.2598 20.0918C64.1641 20.4336 64.1162 20.8278 64.1162 21.2744V21.5615C64.1162 21.9124 64.1641 22.2428 64.2598 22.5527C64.36 22.8581 64.5036 23.127 64.6904 23.3594C64.8818 23.5918 65.112 23.7741 65.3809 23.9062C65.6543 24.0384 65.9642 24.1045 66.3105 24.1045C66.7572 24.1045 67.1354 24.0133 67.4453 23.8311C67.7552 23.6488 68.0264 23.4049 68.2588 23.0996L69.0244 23.708C68.8649 23.9495 68.6621 24.1797 68.416 24.3984C68.1699 24.6172 67.8669 24.7949 67.5068 24.9316C67.1514 25.0684 66.7298 25.1367 66.2422 25.1367ZM71.9707 14.5V25H70.6992V14.5H71.9707ZM76.9609 24.0977C77.2617 24.0977 77.5397 24.0361 77.7949 23.9131C78.0501 23.79 78.2598 23.6214 78.4238 23.4072C78.5879 23.1885 78.6813 22.9401 78.7041 22.6621H79.9072C79.8844 23.0996 79.7363 23.5075 79.4629 23.8857C79.194 24.2594 78.8408 24.5625 78.4033 24.7949C77.9658 25.0228 77.485 25.1367 76.9609 25.1367C76.4049 25.1367 75.9196 25.0387 75.5049 24.8428C75.0947 24.6468 74.7529 24.3779 74.4795 24.0361C74.2106 23.6943 74.0078 23.3024 73.8711 22.8604C73.7389 22.4137 73.6729 21.9421 73.6729 21.4453V21.1582C73.6729 20.6615 73.7389 20.1921 73.8711 19.75C74.0078 19.3034 74.2106 18.9092 74.4795 18.5674C74.7529 18.2256 75.0947 17.9567 75.5049 17.7607C75.9196 17.5648 76.4049 17.4668 76.9609 17.4668C77.5397 17.4668 78.0456 17.5853 78.4785 17.8223C78.9115 18.0547 79.251 18.3737 79.4971 18.7793C79.7477 19.1803 79.8844 19.6361 79.9072 20.1465H78.7041C78.6813 19.8411 78.5947 19.5654 78.4443 19.3193C78.2985 19.0732 78.098 18.8773 77.8428 18.7314C77.5921 18.5811 77.2982 18.5059 76.9609 18.5059C76.5736 18.5059 76.2477 18.5833 75.9834 18.7383C75.7236 18.8887 75.5163 19.0938 75.3613 19.3535C75.2109 19.6087 75.1016 19.8936 75.0332 20.208C74.9694 20.5179 74.9375 20.8346 74.9375 21.1582V21.4453C74.9375 21.7689 74.9694 22.0879 75.0332 22.4023C75.097 22.7168 75.2041 23.0016 75.3545 23.2568C75.5094 23.512 75.7168 23.7171 75.9766 23.8721C76.2409 24.0225 76.569 24.0977 76.9609 24.0977ZM80.9941 21.3838V21.2266C80.9941 20.6934 81.0716 20.1989 81.2266 19.7432C81.3815 19.2829 81.6048 18.8841 81.8965 18.5469C82.1882 18.2051 82.5413 17.9408 82.9561 17.7539C83.3708 17.5625 83.8356 17.4668 84.3506 17.4668C84.8701 17.4668 85.3372 17.5625 85.752 17.7539C86.1712 17.9408 86.5267 18.2051 86.8184 18.5469C87.1146 18.8841 87.3402 19.2829 87.4951 19.7432C87.6501 20.1989 87.7275 20.6934 87.7275 21.2266V21.3838C87.7275 21.917 87.6501 22.4115 87.4951 22.8672C87.3402 23.3229 87.1146 23.7217 86.8184 24.0635C86.5267 24.4007 86.1735 24.665 85.7588 24.8564C85.3486 25.0433 84.8838 25.1367 84.3643 25.1367C83.8447 25.1367 83.3776 25.0433 82.9629 24.8564C82.5482 24.665 82.1927 24.4007 81.8965 24.0635C81.6048 23.7217 81.3815 23.3229 81.2266 22.8672C81.0716 22.4115 80.9941 21.917 80.9941 21.3838ZM82.2588 21.2266V21.3838C82.2588 21.7529 82.3021 22.1016 82.3887 22.4297C82.4753 22.7533 82.6051 23.0404 82.7783 23.291C82.9561 23.5417 83.1771 23.7399 83.4414 23.8857C83.7057 24.027 84.0133 24.0977 84.3643 24.0977C84.7106 24.0977 85.0137 24.027 85.2734 23.8857C85.5378 23.7399 85.7565 23.5417 85.9297 23.291C86.1029 23.0404 86.2327 22.7533 86.3193 22.4297C86.4105 22.1016 86.4561 21.7529 86.4561 21.3838V21.2266C86.4561 20.862 86.4105 20.5179 86.3193 20.1943C86.2327 19.8662 86.1006 19.5768 85.9229 19.3262C85.7497 19.071 85.5309 18.8704 85.2666 18.7246C85.0068 18.5788 84.7015 18.5059 84.3506 18.5059C84.0042 18.5059 83.6989 18.5788 83.4346 18.7246C83.1748 18.8704 82.9561 19.071 82.7783 19.3262C82.6051 19.5768 82.4753 19.8662 82.3887 20.1943C82.3021 20.5179 82.2588 20.862 82.2588 21.2266ZM90.5713 19.0732V25H89.2998V17.6035H90.5029L90.5713 19.0732ZM90.3115 21.0215L89.7236 21.001C89.7282 20.4951 89.7943 20.028 89.9219 19.5996C90.0495 19.1667 90.2386 18.7907 90.4893 18.4717C90.7399 18.1527 91.0521 17.9066 91.4258 17.7334C91.7995 17.5557 92.2324 17.4668 92.7246 17.4668C93.071 17.4668 93.39 17.5169 93.6816 17.6172C93.9733 17.7129 94.2262 17.8656 94.4404 18.0752C94.6546 18.2848 94.821 18.5537 94.9395 18.8818C95.0579 19.21 95.1172 19.6064 95.1172 20.0713V25H93.8525V20.1328C93.8525 19.7454 93.7865 19.4355 93.6543 19.2031C93.5267 18.9707 93.3444 18.8021 93.1074 18.6973C92.8704 18.5879 92.5924 18.5332 92.2734 18.5332C91.8997 18.5332 91.5876 18.5993 91.3369 18.7314C91.0863 18.8636 90.8857 19.0459 90.7354 19.2783C90.585 19.5107 90.4756 19.7773 90.4072 20.0781C90.3434 20.3743 90.3115 20.6888 90.3115 21.0215ZM95.1035 20.3242L94.2559 20.584C94.2604 20.1784 94.3265 19.7887 94.4541 19.415C94.5863 19.0413 94.7754 18.7087 95.0215 18.417C95.2721 18.1253 95.5798 17.8952 95.9443 17.7266C96.3089 17.5534 96.7259 17.4668 97.1953 17.4668C97.5918 17.4668 97.9427 17.5192 98.248 17.624C98.5579 17.7288 98.8177 17.8906 99.0273 18.1094C99.2415 18.3236 99.4033 18.5993 99.5127 18.9365C99.6221 19.2738 99.6768 19.6748 99.6768 20.1396V25H98.4053V20.126C98.4053 19.7113 98.3392 19.39 98.207 19.1621C98.0794 18.9297 97.8971 18.7679 97.6602 18.6768C97.4277 18.5811 97.1497 18.5332 96.8262 18.5332C96.5482 18.5332 96.3021 18.5811 96.0879 18.6768C95.8737 18.7725 95.6937 18.9046 95.5479 19.0732C95.402 19.2373 95.2904 19.4264 95.2129 19.6406C95.14 19.8548 95.1035 20.0827 95.1035 20.3242ZM104.66 25.1367C104.145 25.1367 103.678 25.0501 103.259 24.877C102.844 24.6992 102.486 24.4508 102.186 24.1318C101.889 23.8128 101.661 23.4346 101.502 22.9971C101.342 22.5596 101.263 22.0811 101.263 21.5615V21.2744C101.263 20.6729 101.352 20.1374 101.529 19.668C101.707 19.194 101.949 18.793 102.254 18.4648C102.559 18.1367 102.906 17.8883 103.293 17.7197C103.68 17.5511 104.081 17.4668 104.496 17.4668C105.025 17.4668 105.48 17.5579 105.863 17.7402C106.251 17.9225 106.567 18.1777 106.813 18.5059C107.06 18.8294 107.242 19.2122 107.36 19.6543C107.479 20.0918 107.538 20.5703 107.538 21.0898V21.6572H102.015V20.625H106.273V20.5293C106.255 20.2012 106.187 19.8822 106.068 19.5723C105.954 19.2624 105.772 19.0072 105.521 18.8066C105.271 18.6061 104.929 18.5059 104.496 18.5059C104.209 18.5059 103.945 18.5674 103.703 18.6904C103.462 18.8089 103.254 18.9867 103.081 19.2236C102.908 19.4606 102.773 19.75 102.678 20.0918C102.582 20.4336 102.534 20.8278 102.534 21.2744V21.5615C102.534 21.9124 102.582 22.2428 102.678 22.5527C102.778 22.8581 102.922 23.127 103.108 23.3594C103.3 23.5918 103.53 23.7741 103.799 23.9062C104.072 24.0384 104.382 24.1045 104.729 24.1045C105.175 24.1045 105.553 24.0133 105.863 23.8311C106.173 23.6488 106.444 23.4049 106.677 23.0996L107.442 23.708C107.283 23.9495 107.08 24.1797 106.834 24.3984C106.588 24.6172 106.285 24.7949 105.925 24.9316C105.569 25.0684 105.148 25.1367 104.66 25.1367ZM116.459 16.749L113.752 25H111.571L115.27 15.0469H116.657L116.459 16.749ZM118.708 25L115.994 16.749L115.775 15.0469H117.177L120.896 25H118.708ZM118.585 21.2949V22.9014H113.328V21.2949H118.585ZM123.664 19.2168V25H121.695V17.6035H123.548L123.664 19.2168ZM125.893 17.5557L125.858 19.3809C125.763 19.3672 125.646 19.3558 125.51 19.3467C125.378 19.333 125.257 19.3262 125.147 19.3262C124.869 19.3262 124.628 19.3626 124.423 19.4355C124.222 19.5039 124.054 19.6064 123.917 19.7432C123.785 19.8799 123.685 20.0462 123.616 20.2422C123.552 20.4382 123.516 20.6615 123.507 20.9121L123.11 20.7891C123.11 20.3105 123.158 19.8708 123.254 19.4697C123.35 19.0641 123.489 18.7109 123.671 18.4102C123.858 18.1094 124.086 17.877 124.354 17.7129C124.623 17.5488 124.931 17.4668 125.277 17.4668C125.387 17.4668 125.498 17.4759 125.612 17.4941C125.726 17.5078 125.82 17.5283 125.893 17.5557ZM129.741 23.5986C129.983 23.5986 130.197 23.5531 130.384 23.4619C130.571 23.3662 130.716 23.234 130.821 23.0654C130.931 22.8923 130.988 22.6895 130.992 22.457H132.845C132.84 22.9766 132.701 23.4391 132.428 23.8447C132.154 24.2458 131.787 24.5625 131.327 24.7949C130.867 25.0228 130.352 25.1367 129.782 25.1367C129.208 25.1367 128.707 25.041 128.278 24.8496C127.854 24.6582 127.501 24.3939 127.219 24.0566C126.936 23.7148 126.724 23.3184 126.583 22.8672C126.442 22.4115 126.371 21.9238 126.371 21.4043V21.2061C126.371 20.682 126.442 20.1943 126.583 19.7432C126.724 19.2874 126.936 18.891 127.219 18.5537C127.501 18.2119 127.854 17.9453 128.278 17.7539C128.702 17.5625 129.199 17.4668 129.769 17.4668C130.375 17.4668 130.906 17.583 131.361 17.8154C131.822 18.0479 132.182 18.3805 132.441 18.8135C132.706 19.2419 132.84 19.75 132.845 20.3379H130.992C130.988 20.0918 130.935 19.8685 130.835 19.668C130.739 19.4674 130.598 19.3079 130.411 19.1895C130.229 19.0664 130.003 19.0049 129.734 19.0049C129.447 19.0049 129.213 19.0664 129.03 19.1895C128.848 19.3079 128.707 19.472 128.606 19.6816C128.506 19.8867 128.436 20.1214 128.395 20.3857C128.358 20.6455 128.34 20.9189 128.34 21.2061V21.4043C128.34 21.6914 128.358 21.9671 128.395 22.2314C128.431 22.4958 128.499 22.7305 128.6 22.9355C128.704 23.1406 128.848 23.3024 129.03 23.4209C129.213 23.5394 129.45 23.5986 129.741 23.5986ZM137.979 23.332V20.0371C137.979 19.8001 137.94 19.5973 137.862 19.4287C137.785 19.2555 137.664 19.1211 137.5 19.0254C137.34 18.9297 137.133 18.8818 136.878 18.8818C136.659 18.8818 136.47 18.9206 136.311 18.998C136.151 19.071 136.028 19.1781 135.941 19.3193C135.855 19.4561 135.812 19.6178 135.812 19.8047H133.843C133.843 19.4902 133.916 19.1917 134.062 18.9092C134.207 18.6266 134.419 18.3783 134.697 18.1641C134.975 17.9453 135.306 17.7744 135.688 17.6514C136.076 17.5283 136.509 17.4668 136.987 17.4668C137.562 17.4668 138.072 17.5625 138.519 17.7539C138.965 17.9453 139.316 18.2324 139.571 18.6152C139.831 18.998 139.961 19.4766 139.961 20.0508V23.2158C139.961 23.6214 139.986 23.9541 140.036 24.2139C140.086 24.4691 140.159 24.6924 140.255 24.8838V25H138.266C138.17 24.7995 138.097 24.5488 138.047 24.248C138.001 23.9427 137.979 23.6374 137.979 23.332ZM138.238 20.4951L138.252 21.6094H137.151C136.892 21.6094 136.666 21.639 136.475 21.6982C136.283 21.7575 136.126 21.8418 136.003 21.9512C135.88 22.056 135.789 22.179 135.729 22.3203C135.675 22.4616 135.647 22.6165 135.647 22.7852C135.647 22.9538 135.686 23.1064 135.764 23.2432C135.841 23.3753 135.953 23.4801 136.099 23.5576C136.244 23.6305 136.415 23.667 136.611 23.667C136.908 23.667 137.165 23.6077 137.384 23.4893C137.603 23.3708 137.771 23.2249 137.89 23.0518C138.013 22.8786 138.076 22.7145 138.081 22.5596L138.601 23.3936C138.528 23.5804 138.427 23.7741 138.3 23.9746C138.177 24.1751 138.02 24.3643 137.828 24.542C137.637 24.7152 137.407 24.8587 137.138 24.9727C136.869 25.082 136.55 25.1367 136.181 25.1367C135.711 25.1367 135.285 25.0433 134.902 24.8564C134.524 24.665 134.223 24.403 134 24.0703C133.781 23.7331 133.672 23.3503 133.672 22.9219C133.672 22.5345 133.745 22.1904 133.891 21.8896C134.036 21.5889 134.251 21.3359 134.533 21.1309C134.82 20.9212 135.178 20.764 135.606 20.6592C136.035 20.5498 136.532 20.4951 137.097 20.4951H138.238ZM145.847 23.3867V14.5H147.829V25H146.045L145.847 23.3867ZM141.171 21.3906V21.2471C141.171 20.682 141.235 20.1693 141.362 19.709C141.49 19.2441 141.677 18.8454 141.923 18.5127C142.169 18.18 142.472 17.9225 142.832 17.7402C143.192 17.5579 143.602 17.4668 144.062 17.4668C144.495 17.4668 144.874 17.5579 145.197 17.7402C145.525 17.9225 145.803 18.1823 146.031 18.5195C146.264 18.8522 146.451 19.2464 146.592 19.7021C146.733 20.1533 146.836 20.6478 146.899 21.1855V21.5C146.836 22.015 146.733 22.4935 146.592 22.9355C146.451 23.3776 146.264 23.765 146.031 24.0977C145.803 24.4258 145.525 24.681 145.197 24.8633C144.869 25.0456 144.486 25.1367 144.049 25.1367C143.589 25.1367 143.178 25.0433 142.818 24.8564C142.463 24.6696 142.162 24.4076 141.916 24.0703C141.674 23.7331 141.49 23.3366 141.362 22.8809C141.235 22.4251 141.171 21.9284 141.171 21.3906ZM143.14 21.2471V21.3906C143.14 21.696 143.162 21.9808 143.208 22.2451C143.258 22.5094 143.338 22.7441 143.447 22.9492C143.561 23.1497 143.707 23.307 143.885 23.4209C144.067 23.5303 144.288 23.585 144.548 23.585C144.885 23.585 145.163 23.5098 145.382 23.3594C145.601 23.2044 145.767 22.9925 145.881 22.7236C145.999 22.4548 146.068 22.1449 146.086 21.7939V20.8984C146.072 20.6113 146.031 20.3538 145.963 20.126C145.899 19.8936 145.803 19.6953 145.676 19.5312C145.553 19.3672 145.398 19.2396 145.211 19.1484C145.029 19.0573 144.812 19.0117 144.562 19.0117C144.306 19.0117 144.088 19.071 143.905 19.1895C143.723 19.3034 143.575 19.4606 143.461 19.6611C143.352 19.8617 143.27 20.0986 143.215 20.3721C143.165 20.641 143.14 20.9326 143.14 21.2471ZM151.445 17.6035V25H149.47V17.6035H151.445ZM149.347 15.6758C149.347 15.3887 149.447 15.1517 149.647 14.9648C149.848 14.778 150.117 14.6846 150.454 14.6846C150.787 14.6846 151.053 14.778 151.254 14.9648C151.459 15.1517 151.562 15.3887 151.562 15.6758C151.562 15.9629 151.459 16.1999 151.254 16.3867C151.053 16.5736 150.787 16.667 150.454 16.667C150.117 16.667 149.848 16.5736 149.647 16.3867C149.447 16.1999 149.347 15.9629 149.347 15.6758ZM157.064 23.332V20.0371C157.064 19.8001 157.026 19.5973 156.948 19.4287C156.871 19.2555 156.75 19.1211 156.586 19.0254C156.426 18.9297 156.219 18.8818 155.964 18.8818C155.745 18.8818 155.556 18.9206 155.396 18.998C155.237 19.071 155.114 19.1781 155.027 19.3193C154.941 19.4561 154.897 19.6178 154.897 19.8047H152.929C152.929 19.4902 153.002 19.1917 153.147 18.9092C153.293 18.6266 153.505 18.3783 153.783 18.1641C154.061 17.9453 154.392 17.7744 154.774 17.6514C155.162 17.5283 155.595 17.4668 156.073 17.4668C156.647 17.4668 157.158 17.5625 157.604 17.7539C158.051 17.9453 158.402 18.2324 158.657 18.6152C158.917 18.998 159.047 19.4766 159.047 20.0508V23.2158C159.047 23.6214 159.072 23.9541 159.122 24.2139C159.172 24.4691 159.245 24.6924 159.341 24.8838V25H157.352C157.256 24.7995 157.183 24.5488 157.133 24.248C157.087 23.9427 157.064 23.6374 157.064 23.332ZM157.324 20.4951L157.338 21.6094H156.237C155.978 21.6094 155.752 21.639 155.561 21.6982C155.369 21.7575 155.212 21.8418 155.089 21.9512C154.966 22.056 154.875 22.179 154.815 22.3203C154.761 22.4616 154.733 22.6165 154.733 22.7852C154.733 22.9538 154.772 23.1064 154.85 23.2432C154.927 23.3753 155.039 23.4801 155.185 23.5576C155.33 23.6305 155.501 23.667 155.697 23.667C155.993 23.667 156.251 23.6077 156.47 23.4893C156.688 23.3708 156.857 23.2249 156.976 23.0518C157.099 22.8786 157.162 22.7145 157.167 22.5596L157.687 23.3936C157.614 23.5804 157.513 23.7741 157.386 23.9746C157.263 24.1751 157.105 24.3643 156.914 24.542C156.723 24.7152 156.493 24.8587 156.224 24.9727C155.955 25.082 155.636 25.1367 155.267 25.1367C154.797 25.1367 154.371 25.0433 153.988 24.8564C153.61 24.665 153.309 24.403 153.086 24.0703C152.867 23.7331 152.758 23.3503 152.758 22.9219C152.758 22.5345 152.831 22.1904 152.977 21.8896C153.122 21.5889 153.337 21.3359 153.619 21.1309C153.906 20.9212 154.264 20.764 154.692 20.6592C155.121 20.5498 155.618 20.4951 156.183 20.4951H157.324ZM162.786 15.0469L162.561 21.958H160.92L160.688 15.0469H162.786ZM160.633 24.0977C160.633 23.806 160.733 23.5645 160.934 23.373C161.139 23.1771 161.408 23.0791 161.74 23.0791C162.077 23.0791 162.346 23.1771 162.547 23.373C162.747 23.5645 162.848 23.806 162.848 24.0977C162.848 24.3802 162.747 24.6195 162.547 24.8154C162.346 25.0114 162.077 25.1094 161.74 25.1094C161.408 25.1094 161.139 25.0114 160.934 24.8154C160.733 24.6195 160.633 24.3802 160.633 24.0977Z" fill="#252B4B"/>
</svg>
