<svg width="1052" height="40" viewBox="0 0 1052 40" fill="none" xmlns="http://www.w3.org/2000/svg">
<rect width="1052" height="40" rx="8" fill="white"/>
<circle cx="543" cy="20" r="10" fill="#5E35B1"/>
<path d="M543 10C537.48 10 533 14.48 533 20C533 25.52 537.48 30 543 30C548.52 30 553 25.52 553 20C553 14.48 548.52 10 543 10ZM548 21H544V25H542V21H538V19H542V15H544V19H548V21Z" fill="#EDE7F6"/>
<rect opacity="0.25" x="573" y="10" width="2" height="20" fill="#252B4B"/>
<path d="M599.765 21.4521H597.229V19.8525H599.765C600.157 19.8525 600.476 19.7887 600.722 19.6611C600.968 19.529 601.148 19.3467 601.262 19.1143C601.376 18.8818 601.433 18.6198 601.433 18.3281C601.433 18.0319 601.376 17.7562 601.262 17.501C601.148 17.2458 600.968 17.0407 600.722 16.8857C600.476 16.7308 600.157 16.6533 599.765 16.6533H597.939V25H595.889V15.0469H599.765C600.544 15.0469 601.212 15.1882 601.768 15.4707C602.328 15.7487 602.757 16.1338 603.053 16.626C603.349 17.1182 603.497 17.681 603.497 18.3145C603.497 18.957 603.349 19.513 603.053 19.9824C602.757 20.4518 602.328 20.8141 601.768 21.0693C601.212 21.3245 600.544 21.4521 599.765 21.4521ZM605.849 15.0469H607.585L610.142 22.3545L612.698 15.0469H614.435L610.839 25H609.444L605.849 15.0469ZM604.912 15.0469H606.642L606.956 22.1699V25H604.912V15.0469ZM613.642 15.0469H615.378V25H613.327V22.1699L613.642 15.0469ZM625.352 19.791V20.2627C625.352 21.0192 625.249 21.6982 625.044 22.2998C624.839 22.9014 624.549 23.4141 624.176 23.8379C623.802 24.2572 623.355 24.5785 622.836 24.8018C622.321 25.0251 621.749 25.1367 621.12 25.1367C620.496 25.1367 619.924 25.0251 619.404 24.8018C618.889 24.5785 618.443 24.2572 618.064 23.8379C617.686 23.4141 617.392 22.9014 617.183 22.2998C616.978 21.6982 616.875 21.0192 616.875 20.2627V19.791C616.875 19.0299 616.978 18.3509 617.183 17.7539C617.388 17.1523 617.677 16.6396 618.051 16.2158C618.429 15.792 618.876 15.4684 619.391 15.2451C619.91 15.0218 620.482 14.9102 621.106 14.9102C621.735 14.9102 622.307 15.0218 622.822 15.2451C623.342 15.4684 623.788 15.792 624.162 16.2158C624.54 16.6396 624.832 17.1523 625.037 17.7539C625.247 18.3509 625.352 19.0299 625.352 19.791ZM623.28 20.2627V19.7773C623.28 19.2487 623.232 18.7839 623.137 18.3828C623.041 17.9818 622.9 17.6445 622.713 17.3711C622.526 17.0977 622.298 16.8926 622.029 16.7559C621.76 16.6146 621.453 16.5439 621.106 16.5439C620.76 16.5439 620.452 16.6146 620.184 16.7559C619.919 16.8926 619.694 17.0977 619.507 17.3711C619.325 17.6445 619.186 17.9818 619.09 18.3828C618.994 18.7839 618.946 19.2487 618.946 19.7773V20.2627C618.946 20.7868 618.994 21.2516 619.09 21.6572C619.186 22.0583 619.327 22.3978 619.514 22.6758C619.701 22.9492 619.928 23.1566 620.197 23.2979C620.466 23.4391 620.774 23.5098 621.12 23.5098C621.466 23.5098 621.774 23.4391 622.043 23.2979C622.312 23.1566 622.537 22.9492 622.72 22.6758C622.902 22.3978 623.041 22.0583 623.137 21.6572C623.232 21.2516 623.28 20.7868 623.28 20.2627ZM633.37 25H631.203L631.217 23.4004H633.37C633.908 23.4004 634.361 23.2796 634.73 23.0381C635.1 22.792 635.378 22.4342 635.564 21.9648C635.756 21.4954 635.852 20.9281 635.852 20.2627V19.7773C635.852 19.2669 635.797 18.818 635.688 18.4307C635.583 18.0433 635.425 17.7174 635.216 17.4531C635.006 17.1888 634.749 16.9906 634.443 16.8584C634.138 16.7217 633.787 16.6533 633.391 16.6533H631.162V15.0469H633.391C634.056 15.0469 634.664 15.1608 635.216 15.3887C635.772 15.612 636.253 15.9333 636.658 16.3525C637.064 16.7718 637.376 17.2731 637.595 17.8564C637.818 18.4352 637.93 19.0801 637.93 19.791V20.2627C637.93 20.9691 637.818 21.6139 637.595 22.1973C637.376 22.7806 637.064 23.2819 636.658 23.7012C636.257 24.1159 635.776 24.4372 635.216 24.665C634.66 24.8883 634.045 25 633.37 25ZM632.365 15.0469V25H630.314V15.0469H632.365ZM643.289 23.332V20.0371C643.289 19.8001 643.25 19.5973 643.173 19.4287C643.095 19.2555 642.975 19.1211 642.811 19.0254C642.651 18.9297 642.444 18.8818 642.188 18.8818C641.97 18.8818 641.781 18.9206 641.621 18.998C641.462 19.071 641.339 19.1781 641.252 19.3193C641.165 19.4561 641.122 19.6178 641.122 19.8047H639.153C639.153 19.4902 639.226 19.1917 639.372 18.9092C639.518 18.6266 639.73 18.3783 640.008 18.1641C640.286 17.9453 640.616 17.7744 640.999 17.6514C641.386 17.5283 641.819 17.4668 642.298 17.4668C642.872 17.4668 643.382 17.5625 643.829 17.7539C644.276 17.9453 644.627 18.2324 644.882 18.6152C645.142 18.998 645.271 19.4766 645.271 20.0508V23.2158C645.271 23.6214 645.297 23.9541 645.347 24.2139C645.397 24.4691 645.47 24.6924 645.565 24.8838V25H643.576C643.48 24.7995 643.408 24.5488 643.357 24.248C643.312 23.9427 643.289 23.6374 643.289 23.332ZM643.549 20.4951L643.562 21.6094H642.462C642.202 21.6094 641.977 21.639 641.785 21.6982C641.594 21.7575 641.437 21.8418 641.313 21.9512C641.19 22.056 641.099 22.179 641.04 22.3203C640.985 22.4616 640.958 22.6165 640.958 22.7852C640.958 22.9538 640.997 23.1064 641.074 23.2432C641.152 23.3753 641.263 23.4801 641.409 23.5576C641.555 23.6305 641.726 23.667 641.922 23.667C642.218 23.667 642.476 23.6077 642.694 23.4893C642.913 23.3708 643.082 23.2249 643.2 23.0518C643.323 22.8786 643.387 22.7145 643.392 22.5596L643.911 23.3936C643.838 23.5804 643.738 23.7741 643.61 23.9746C643.487 24.1751 643.33 24.3643 643.139 24.542C642.947 24.7152 642.717 24.8587 642.448 24.9727C642.179 25.082 641.86 25.1367 641.491 25.1367C641.022 25.1367 640.596 25.0433 640.213 24.8564C639.835 24.665 639.534 24.403 639.311 24.0703C639.092 23.7331 638.982 23.3503 638.982 22.9219C638.982 22.5345 639.055 22.1904 639.201 21.8896C639.347 21.5889 639.561 21.3359 639.844 21.1309C640.131 20.9212 640.489 20.764 640.917 20.6592C641.345 20.5498 641.842 20.4951 642.407 20.4951H643.549ZM650.788 22.9561C650.788 22.8148 650.747 22.6872 650.665 22.5732C650.583 22.4593 650.43 22.3545 650.207 22.2588C649.988 22.1585 649.672 22.0674 649.257 21.9854C648.883 21.9033 648.535 21.8008 648.211 21.6777C647.892 21.5501 647.614 21.3975 647.377 21.2197C647.145 21.042 646.962 20.8324 646.83 20.5908C646.698 20.3447 646.632 20.0645 646.632 19.75C646.632 19.4401 646.698 19.1484 646.83 18.875C646.967 18.6016 647.16 18.36 647.411 18.1504C647.666 17.9362 647.976 17.7699 648.341 17.6514C648.71 17.5283 649.125 17.4668 649.585 17.4668C650.228 17.4668 650.779 17.5693 651.239 17.7744C651.704 17.9795 652.06 18.262 652.306 18.6221C652.556 18.9775 652.682 19.3831 652.682 19.8389H650.713C650.713 19.6475 650.672 19.4766 650.59 19.3262C650.512 19.1712 650.389 19.0505 650.221 18.9639C650.057 18.8727 649.842 18.8271 649.578 18.8271C649.359 18.8271 649.17 18.8659 649.011 18.9434C648.851 19.0163 648.728 19.1165 648.642 19.2441C648.56 19.3672 648.519 19.5039 648.519 19.6543C648.519 19.7682 648.541 19.8708 648.587 19.9619C648.637 20.0485 648.717 20.1283 648.826 20.2012C648.936 20.2741 649.077 20.3424 649.25 20.4062C649.428 20.4655 649.646 20.5202 649.906 20.5703C650.439 20.6797 650.916 20.8232 651.335 21.001C651.754 21.1742 652.087 21.4111 652.333 21.7119C652.579 22.0081 652.702 22.3978 652.702 22.8809C652.702 23.209 652.629 23.5098 652.483 23.7832C652.338 24.0566 652.128 24.2959 651.854 24.501C651.581 24.7015 651.253 24.8587 650.87 24.9727C650.492 25.082 650.066 25.1367 649.592 25.1367C648.904 25.1367 648.32 25.0137 647.842 24.7676C647.368 24.5215 647.008 24.2093 646.762 23.8311C646.52 23.4482 646.399 23.0563 646.399 22.6553H648.266C648.275 22.9242 648.343 23.1406 648.471 23.3047C648.603 23.4688 648.769 23.5872 648.97 23.6602C649.175 23.7331 649.396 23.7695 649.633 23.7695C649.888 23.7695 650.1 23.7354 650.269 23.667C650.437 23.5941 650.565 23.4984 650.651 23.3799C650.743 23.2568 650.788 23.1156 650.788 22.9561ZM655.901 14.5V25H653.933V14.5H655.901ZM655.621 21.042H655.081C655.086 20.527 655.154 20.0531 655.286 19.6201C655.418 19.1826 655.607 18.8044 655.854 18.4854C656.1 18.1618 656.394 17.9111 656.735 17.7334C657.082 17.5557 657.465 17.4668 657.884 17.4668C658.248 17.4668 658.579 17.5192 658.875 17.624C659.176 17.7243 659.433 17.8883 659.647 18.1162C659.866 18.3395 660.035 18.6335 660.153 18.998C660.272 19.3626 660.331 19.8047 660.331 20.3242V25H658.349V20.3105C658.349 19.9824 658.301 19.7249 658.205 19.5381C658.114 19.3467 657.979 19.2122 657.802 19.1348C657.629 19.0527 657.414 19.0117 657.159 19.0117C656.877 19.0117 656.635 19.0641 656.435 19.1689C656.239 19.2738 656.081 19.4196 655.963 19.6064C655.844 19.7887 655.758 20.0029 655.703 20.249C655.648 20.4951 655.621 20.7594 655.621 21.042ZM661.828 14.5H663.797V23.3047L663.599 25H661.828V14.5ZM668.479 21.2266V21.3701C668.479 21.9215 668.42 22.4274 668.302 22.8877C668.188 23.348 668.01 23.7467 667.769 24.084C667.527 24.4167 667.226 24.6764 666.866 24.8633C666.511 25.0456 666.091 25.1367 665.608 25.1367C665.157 25.1367 664.765 25.0456 664.433 24.8633C664.104 24.681 663.829 24.4235 663.605 24.0908C663.382 23.7581 663.202 23.3685 663.065 22.9219C662.929 22.4753 662.826 21.9876 662.758 21.459V21.1445C662.826 20.6159 662.929 20.1283 663.065 19.6816C663.202 19.235 663.382 18.8454 663.605 18.5127C663.829 18.18 664.104 17.9225 664.433 17.7402C664.761 17.5579 665.148 17.4668 665.595 17.4668C666.082 17.4668 666.506 17.5602 666.866 17.7471C667.231 17.9294 667.532 18.1891 667.769 18.5264C668.01 18.859 668.188 19.2555 668.302 19.7158C668.42 20.1715 668.479 20.6751 668.479 21.2266ZM666.511 21.3701V21.2266C666.511 20.9258 666.488 20.6432 666.442 20.3789C666.401 20.11 666.328 19.8753 666.224 19.6748C666.119 19.4697 665.975 19.3079 665.793 19.1895C665.615 19.071 665.385 19.0117 665.103 19.0117C664.834 19.0117 664.606 19.0573 664.419 19.1484C664.232 19.2396 664.077 19.3672 663.954 19.5312C663.836 19.6953 663.747 19.8913 663.688 20.1191C663.628 20.3424 663.592 20.5885 663.578 20.8574V21.7529C663.592 22.113 663.651 22.432 663.756 22.71C663.865 22.9834 664.029 23.1999 664.248 23.3594C664.471 23.5143 664.761 23.5918 665.116 23.5918C665.394 23.5918 665.624 23.5371 665.807 23.4277C665.989 23.3184 666.13 23.1634 666.23 22.9629C666.335 22.7624 666.408 22.5277 666.449 22.2588C666.49 21.9854 666.511 21.6891 666.511 21.3701ZM669.389 21.377V21.2334C669.389 20.6911 669.466 20.1921 669.621 19.7363C669.776 19.276 670.002 18.8773 670.298 18.54C670.594 18.2028 670.959 17.9408 671.392 17.7539C671.825 17.5625 672.321 17.4668 672.882 17.4668C673.442 17.4668 673.941 17.5625 674.379 17.7539C674.816 17.9408 675.183 18.2028 675.479 18.54C675.78 18.8773 676.008 19.276 676.163 19.7363C676.318 20.1921 676.396 20.6911 676.396 21.2334V21.377C676.396 21.9147 676.318 22.4137 676.163 22.874C676.008 23.3298 675.78 23.7285 675.479 24.0703C675.183 24.4076 674.819 24.6696 674.386 24.8564C673.953 25.0433 673.456 25.1367 672.896 25.1367C672.335 25.1367 671.836 25.0433 671.398 24.8564C670.965 24.6696 670.599 24.4076 670.298 24.0703C670.002 23.7285 669.776 23.3298 669.621 22.874C669.466 22.4137 669.389 21.9147 669.389 21.377ZM671.357 21.2334V21.377C671.357 21.6868 671.385 21.9762 671.439 22.2451C671.494 22.514 671.581 22.751 671.699 22.9561C671.822 23.1566 671.982 23.3138 672.178 23.4277C672.374 23.5417 672.613 23.5986 672.896 23.5986C673.169 23.5986 673.404 23.5417 673.6 23.4277C673.796 23.3138 673.953 23.1566 674.071 22.9561C674.19 22.751 674.276 22.514 674.331 22.2451C674.39 21.9762 674.42 21.6868 674.42 21.377V21.2334C674.42 20.9326 674.39 20.6501 674.331 20.3857C674.276 20.1169 674.188 19.8799 674.064 19.6748C673.946 19.4652 673.789 19.3011 673.593 19.1826C673.397 19.0641 673.16 19.0049 672.882 19.0049C672.604 19.0049 672.367 19.0641 672.171 19.1826C671.979 19.3011 671.822 19.4652 671.699 19.6748C671.581 19.8799 671.494 20.1169 671.439 20.3857C671.385 20.6501 671.357 20.9326 671.357 21.2334ZM681.598 23.332V20.0371C681.598 19.8001 681.559 19.5973 681.481 19.4287C681.404 19.2555 681.283 19.1211 681.119 19.0254C680.96 18.9297 680.752 18.8818 680.497 18.8818C680.278 18.8818 680.089 18.9206 679.93 18.998C679.77 19.071 679.647 19.1781 679.561 19.3193C679.474 19.4561 679.431 19.6178 679.431 19.8047H677.462C677.462 19.4902 677.535 19.1917 677.681 18.9092C677.826 18.6266 678.038 18.3783 678.316 18.1641C678.594 17.9453 678.925 17.7744 679.308 17.6514C679.695 17.5283 680.128 17.4668 680.606 17.4668C681.181 17.4668 681.691 17.5625 682.138 17.7539C682.584 17.9453 682.935 18.2324 683.19 18.6152C683.45 18.998 683.58 19.4766 683.58 20.0508V23.2158C683.58 23.6214 683.605 23.9541 683.655 24.2139C683.705 24.4691 683.778 24.6924 683.874 24.8838V25H681.885C681.789 24.7995 681.716 24.5488 681.666 24.248C681.62 23.9427 681.598 23.6374 681.598 23.332ZM681.857 20.4951L681.871 21.6094H680.771C680.511 21.6094 680.285 21.639 680.094 21.6982C679.902 21.7575 679.745 21.8418 679.622 21.9512C679.499 22.056 679.408 22.179 679.349 22.3203C679.294 22.4616 679.267 22.6165 679.267 22.7852C679.267 22.9538 679.305 23.1064 679.383 23.2432C679.46 23.3753 679.572 23.4801 679.718 23.5576C679.864 23.6305 680.035 23.667 680.23 23.667C680.527 23.667 680.784 23.6077 681.003 23.4893C681.222 23.3708 681.39 23.2249 681.509 23.0518C681.632 22.8786 681.696 22.7145 681.7 22.5596L682.22 23.3936C682.147 23.5804 682.047 23.7741 681.919 23.9746C681.796 24.1751 681.639 24.3643 681.447 24.542C681.256 24.7152 681.026 24.8587 680.757 24.9727C680.488 25.082 680.169 25.1367 679.8 25.1367C679.33 25.1367 678.904 25.0433 678.521 24.8564C678.143 24.665 677.842 24.403 677.619 24.0703C677.4 23.7331 677.291 23.3503 677.291 22.9219C677.291 22.5345 677.364 22.1904 677.51 21.8896C677.656 21.5889 677.87 21.3359 678.152 21.1309C678.439 20.9212 678.797 20.764 679.226 20.6592C679.654 20.5498 680.151 20.4951 680.716 20.4951H681.857ZM687.066 19.2168V25H685.098V17.6035H686.95L687.066 19.2168ZM689.295 17.5557L689.261 19.3809C689.165 19.3672 689.049 19.3558 688.912 19.3467C688.78 19.333 688.659 19.3262 688.55 19.3262C688.272 19.3262 688.03 19.3626 687.825 19.4355C687.625 19.5039 687.456 19.6064 687.319 19.7432C687.187 19.8799 687.087 20.0462 687.019 20.2422C686.955 20.4382 686.918 20.6615 686.909 20.9121L686.513 20.7891C686.513 20.3105 686.561 19.8708 686.656 19.4697C686.752 19.0641 686.891 18.7109 687.073 18.4102C687.26 18.1094 687.488 17.877 687.757 17.7129C688.026 17.5488 688.333 17.4668 688.68 17.4668C688.789 17.4668 688.901 17.4759 689.015 17.4941C689.129 17.5078 689.222 17.5283 689.295 17.5557ZM694.456 23.3867V14.5H696.438V25H694.654L694.456 23.3867ZM689.78 21.3906V21.2471C689.78 20.682 689.844 20.1693 689.972 19.709C690.099 19.2441 690.286 18.8454 690.532 18.5127C690.778 18.18 691.081 17.9225 691.441 17.7402C691.801 17.5579 692.212 17.4668 692.672 17.4668C693.105 17.4668 693.483 17.5579 693.807 17.7402C694.135 17.9225 694.413 18.1823 694.641 18.5195C694.873 18.8522 695.06 19.2464 695.201 19.7021C695.342 20.1533 695.445 20.6478 695.509 21.1855V21.5C695.445 22.015 695.342 22.4935 695.201 22.9355C695.06 23.3776 694.873 23.765 694.641 24.0977C694.413 24.4258 694.135 24.681 693.807 24.8633C693.479 25.0456 693.096 25.1367 692.658 25.1367C692.198 25.1367 691.788 25.0433 691.428 24.8564C691.072 24.6696 690.771 24.4076 690.525 24.0703C690.284 23.7331 690.099 23.3366 689.972 22.8809C689.844 22.4251 689.78 21.9284 689.78 21.3906ZM691.749 21.2471V21.3906C691.749 21.696 691.772 21.9808 691.817 22.2451C691.868 22.5094 691.947 22.7441 692.057 22.9492C692.171 23.1497 692.316 23.307 692.494 23.4209C692.676 23.5303 692.897 23.585 693.157 23.585C693.494 23.585 693.772 23.5098 693.991 23.3594C694.21 23.2044 694.376 22.9925 694.49 22.7236C694.609 22.4548 694.677 22.1449 694.695 21.7939V20.8984C694.682 20.6113 694.641 20.3538 694.572 20.126C694.508 19.8936 694.413 19.6953 694.285 19.5312C694.162 19.3672 694.007 19.2396 693.82 19.1484C693.638 19.0573 693.422 19.0117 693.171 19.0117C692.916 19.0117 692.697 19.071 692.515 19.1895C692.332 19.3034 692.184 19.4606 692.07 19.6611C691.961 19.8617 691.879 20.0986 691.824 20.3721C691.774 20.641 691.749 20.9326 691.749 21.2471Z" fill="#252B4B"/>
<rect opacity="0.25" x="718" y="10" width="2" height="20" fill="#252B4B"/>
<g opacity="0.25">
<path d="M741.709 15.0469H743.24L746.118 22.7236L748.989 15.0469H750.521L746.72 25H745.503L741.709 15.0469ZM741.012 15.0469H742.468L742.721 21.6914V25H741.012V15.0469ZM749.762 15.0469H751.225V25H749.509V21.6914L749.762 15.0469ZM756.358 25.1367C755.812 25.1367 755.317 25.0479 754.875 24.8701C754.438 24.6878 754.064 24.4349 753.754 24.1113C753.449 23.7878 753.214 23.4072 753.05 22.9697C752.886 22.5322 752.804 22.0605 752.804 21.5547V21.2812C752.804 20.7025 752.888 20.1784 753.057 19.709C753.225 19.2396 753.46 18.8385 753.761 18.5059C754.062 18.1686 754.417 17.9111 754.827 17.7334C755.237 17.5557 755.682 17.4668 756.16 17.4668C756.689 17.4668 757.151 17.5557 757.548 17.7334C757.944 17.9111 758.272 18.1618 758.532 18.4854C758.797 18.8044 758.993 19.1849 759.12 19.627C759.252 20.069 759.318 20.5566 759.318 21.0898V21.7939H753.604V20.6113H757.691V20.4814C757.682 20.1852 757.623 19.9072 757.514 19.6475C757.409 19.3877 757.247 19.1781 757.028 19.0186C756.81 18.859 756.518 18.7793 756.153 18.7793C755.88 18.7793 755.636 18.8385 755.422 18.957C755.212 19.071 755.037 19.2373 754.896 19.4561C754.754 19.6748 754.645 19.9391 754.567 20.249C754.494 20.5544 754.458 20.8984 754.458 21.2812V21.5547C754.458 21.8783 754.501 22.179 754.588 22.457C754.679 22.7305 754.811 22.9697 754.984 23.1748C755.158 23.3799 755.367 23.5417 755.613 23.6602C755.859 23.7741 756.14 23.8311 756.454 23.8311C756.851 23.8311 757.204 23.7513 757.514 23.5918C757.824 23.4323 758.092 23.2067 758.32 22.915L759.188 23.7559C759.029 23.9883 758.822 24.2116 758.566 24.4258C758.311 24.6354 757.999 24.8063 757.63 24.9385C757.265 25.0706 756.841 25.1367 756.358 25.1367ZM762.251 19.1074V25H760.604V17.6035H762.155L762.251 19.1074ZM761.984 21.0283L761.424 21.0215C761.424 20.5111 761.488 20.0394 761.615 19.6064C761.743 19.1735 761.93 18.7975 762.176 18.4785C762.422 18.1549 762.727 17.9066 763.092 17.7334C763.461 17.5557 763.887 17.4668 764.37 17.4668C764.707 17.4668 765.015 17.5169 765.293 17.6172C765.576 17.7129 765.819 17.8656 766.024 18.0752C766.234 18.2848 766.394 18.5537 766.503 18.8818C766.617 19.21 766.674 19.6064 766.674 20.0713V25H765.026V20.2148C765.026 19.8548 764.972 19.5723 764.862 19.3672C764.757 19.1621 764.605 19.0163 764.404 18.9297C764.208 18.8385 763.974 18.793 763.7 18.793C763.39 18.793 763.126 18.8522 762.907 18.9707C762.693 19.0892 762.518 19.251 762.381 19.4561C762.244 19.6611 762.144 19.8981 762.08 20.167C762.016 20.4359 761.984 20.723 761.984 21.0283ZM766.571 20.5908L765.799 20.7617C765.799 20.3151 765.86 19.8936 765.983 19.4971C766.111 19.096 766.296 18.7451 766.537 18.4443C766.783 18.139 767.086 17.8997 767.446 17.7266C767.806 17.5534 768.219 17.4668 768.684 17.4668C769.062 17.4668 769.399 17.5192 769.695 17.624C769.996 17.7243 770.251 17.8838 770.461 18.1025C770.671 18.3213 770.83 18.6061 770.939 18.957C771.049 19.3034 771.104 19.7227 771.104 20.2148V25H769.449V20.208C769.449 19.8343 769.395 19.5449 769.285 19.3398C769.18 19.1348 769.03 18.9935 768.834 18.916C768.638 18.834 768.403 18.793 768.13 18.793C767.875 18.793 767.649 18.8408 767.453 18.9365C767.262 19.0277 767.1 19.1576 766.968 19.3262C766.836 19.4902 766.735 19.6794 766.667 19.8936C766.603 20.1077 766.571 20.3402 766.571 20.5908ZM772.806 14.5H774.453V23.4209L774.296 25H772.806V14.5ZM779.279 21.2334V21.377C779.279 21.9238 779.218 22.4274 779.095 22.8877C778.976 23.3434 778.794 23.7399 778.548 24.0771C778.306 24.4144 778.006 24.6764 777.646 24.8633C777.29 25.0456 776.878 25.1367 776.408 25.1367C775.948 25.1367 775.547 25.0501 775.205 24.877C774.863 24.7038 774.576 24.4577 774.344 24.1387C774.116 23.8197 773.931 23.4391 773.79 22.9971C773.649 22.555 773.549 22.0674 773.489 21.5342V21.0762C773.549 20.5384 773.649 20.0508 773.79 19.6133C773.931 19.1712 774.116 18.7907 774.344 18.4717C774.576 18.1481 774.861 17.8997 775.198 17.7266C775.54 17.5534 775.939 17.4668 776.395 17.4668C776.868 17.4668 777.285 17.5579 777.646 17.7402C778.01 17.9225 778.313 18.1823 778.555 18.5195C778.796 18.8522 778.976 19.2487 779.095 19.709C779.218 20.1693 779.279 20.6774 779.279 21.2334ZM777.632 21.377V21.2334C777.632 20.9007 777.604 20.5885 777.55 20.2969C777.495 20.0007 777.404 19.7409 777.276 19.5176C777.153 19.2943 776.985 19.1188 776.771 18.9912C776.561 18.859 776.299 18.793 775.984 18.793C775.693 18.793 775.442 18.8431 775.232 18.9434C775.023 19.0436 774.847 19.1803 774.706 19.3535C774.565 19.5267 774.453 19.7272 774.371 19.9551C774.294 20.1829 774.241 20.429 774.214 20.6934V21.9307C774.255 22.2725 774.341 22.5869 774.474 22.874C774.61 23.1566 774.802 23.3844 775.048 23.5576C775.294 23.7262 775.611 23.8105 775.998 23.8105C776.303 23.8105 776.561 23.749 776.771 23.626C776.98 23.5029 777.146 23.332 777.27 23.1133C777.397 22.89 777.488 22.6302 777.543 22.334C777.602 22.0378 777.632 21.7188 777.632 21.377ZM783.935 25.1367C783.388 25.1367 782.893 25.0479 782.451 24.8701C782.014 24.6878 781.64 24.4349 781.33 24.1113C781.025 23.7878 780.79 23.4072 780.626 22.9697C780.462 22.5322 780.38 22.0605 780.38 21.5547V21.2812C780.38 20.7025 780.464 20.1784 780.633 19.709C780.801 19.2396 781.036 18.8385 781.337 18.5059C781.638 18.1686 781.993 17.9111 782.403 17.7334C782.813 17.5557 783.258 17.4668 783.736 17.4668C784.265 17.4668 784.728 17.5557 785.124 17.7334C785.521 17.9111 785.849 18.1618 786.108 18.4854C786.373 18.8044 786.569 19.1849 786.696 19.627C786.828 20.069 786.895 20.5566 786.895 21.0898V21.7939H781.18V20.6113H785.268V20.4814C785.258 20.1852 785.199 19.9072 785.09 19.6475C784.985 19.3877 784.823 19.1781 784.604 19.0186C784.386 18.859 784.094 18.7793 783.729 18.7793C783.456 18.7793 783.212 18.8385 782.998 18.957C782.788 19.071 782.613 19.2373 782.472 19.4561C782.33 19.6748 782.221 19.9391 782.144 20.249C782.071 20.5544 782.034 20.8984 782.034 21.2812V21.5547C782.034 21.8783 782.077 22.179 782.164 22.457C782.255 22.7305 782.387 22.9697 782.561 23.1748C782.734 23.3799 782.943 23.5417 783.189 23.6602C783.436 23.7741 783.716 23.8311 784.03 23.8311C784.427 23.8311 784.78 23.7513 785.09 23.5918C785.4 23.4323 785.669 23.2067 785.896 22.915L786.765 23.7559C786.605 23.9883 786.398 24.2116 786.143 24.4258C785.887 24.6354 785.575 24.8063 785.206 24.9385C784.841 25.0706 784.418 25.1367 783.935 25.1367ZM789.834 19.0117V25H788.187V17.6035H789.759L789.834 19.0117ZM792.097 17.5557L792.083 19.0869C791.983 19.0687 791.873 19.055 791.755 19.0459C791.641 19.0368 791.527 19.0322 791.413 19.0322C791.131 19.0322 790.882 19.0732 790.668 19.1553C790.454 19.2327 790.274 19.3467 790.128 19.4971C789.987 19.6429 789.877 19.8206 789.8 20.0303C789.722 20.2399 789.677 20.4746 789.663 20.7344L789.287 20.7617C789.287 20.2969 789.333 19.8662 789.424 19.4697C789.515 19.0732 789.652 18.7246 789.834 18.4238C790.021 18.123 790.253 17.8883 790.531 17.7197C790.814 17.5511 791.14 17.4668 791.509 17.4668C791.609 17.4668 791.716 17.4759 791.83 17.4941C791.949 17.5124 792.037 17.5329 792.097 17.5557ZM799.671 25H797.545L797.559 23.6396H799.671C800.286 23.6396 800.801 23.5052 801.216 23.2363C801.635 22.9674 801.95 22.5824 802.159 22.0811C802.373 21.5798 802.48 20.9827 802.48 20.29V19.75C802.48 19.2122 802.419 18.736 802.296 18.3213C802.177 17.9066 802 17.5579 801.763 17.2754C801.53 16.9928 801.243 16.7786 800.901 16.6328C800.564 16.487 800.174 16.4141 799.732 16.4141H797.504V15.0469H799.732C800.393 15.0469 800.997 15.1585 801.544 15.3818C802.091 15.6006 802.562 15.9173 802.959 16.332C803.36 16.7467 803.668 17.2435 803.882 17.8223C804.096 18.401 804.203 19.0482 804.203 19.7637V20.29C804.203 21.0055 804.096 21.6527 803.882 22.2314C803.668 22.8102 803.36 23.307 802.959 23.7217C802.558 24.1318 802.079 24.4486 801.523 24.6719C800.972 24.8906 800.354 25 799.671 25ZM798.495 15.0469V25H796.779V15.0469H798.495ZM809.932 23.5166V19.9893C809.932 19.7249 809.884 19.4971 809.788 19.3057C809.692 19.1143 809.547 18.9661 809.351 18.8613C809.159 18.7565 808.918 18.7041 808.626 18.7041C808.357 18.7041 808.125 18.7497 807.929 18.8408C807.733 18.932 807.58 19.055 807.471 19.21C807.361 19.3649 807.307 19.5404 807.307 19.7363H805.666C805.666 19.4447 805.737 19.1621 805.878 18.8887C806.019 18.6152 806.224 18.3714 806.493 18.1572C806.762 17.943 807.083 17.7744 807.457 17.6514C807.831 17.5283 808.25 17.4668 808.715 17.4668C809.271 17.4668 809.763 17.5602 810.191 17.7471C810.624 17.9339 810.964 18.2165 811.21 18.5947C811.461 18.9684 811.586 19.4378 811.586 20.0029V23.291C811.586 23.6283 811.609 23.9313 811.654 24.2002C811.704 24.4645 811.775 24.6947 811.866 24.8906V25H810.178C810.1 24.8223 810.039 24.5967 809.993 24.3232C809.952 24.0452 809.932 23.7764 809.932 23.5166ZM810.171 20.502L810.185 21.5205H809.002C808.697 21.5205 808.428 21.5501 808.195 21.6094C807.963 21.6641 807.769 21.7461 807.614 21.8555C807.459 21.9648 807.343 22.097 807.266 22.252C807.188 22.4069 807.149 22.5824 807.149 22.7783C807.149 22.9743 807.195 23.1543 807.286 23.3184C807.377 23.4779 807.509 23.6032 807.683 23.6943C807.86 23.7855 808.075 23.8311 808.325 23.8311C808.662 23.8311 808.956 23.7627 809.207 23.626C809.462 23.4847 809.663 23.3138 809.809 23.1133C809.954 22.9082 810.032 22.7145 810.041 22.5322L810.574 23.2637C810.52 23.4505 810.426 23.651 810.294 23.8652C810.162 24.0794 809.989 24.2845 809.774 24.4805C809.565 24.6719 809.312 24.8291 809.016 24.9521C808.724 25.0752 808.387 25.1367 808.004 25.1367C807.521 25.1367 807.09 25.041 806.712 24.8496C806.334 24.6536 806.037 24.3916 805.823 24.0635C805.609 23.7308 805.502 23.3548 805.502 22.9355C805.502 22.5436 805.575 22.1973 805.721 21.8965C805.871 21.5911 806.09 21.3359 806.377 21.1309C806.669 20.9258 807.024 20.7708 807.443 20.666C807.863 20.5566 808.341 20.502 808.879 20.502H810.171ZM817.458 22.9971C817.458 22.833 817.417 22.6849 817.335 22.5527C817.253 22.416 817.096 22.293 816.863 22.1836C816.635 22.0742 816.298 21.974 815.852 21.8828C815.46 21.7962 815.1 21.6937 814.771 21.5752C814.448 21.4521 814.17 21.304 813.938 21.1309C813.705 20.9577 813.525 20.7526 813.397 20.5156C813.27 20.2786 813.206 20.0052 813.206 19.6953C813.206 19.3945 813.272 19.1097 813.404 18.8408C813.536 18.5719 813.726 18.335 813.972 18.1299C814.218 17.9248 814.516 17.763 814.867 17.6445C815.223 17.526 815.619 17.4668 816.057 17.4668C816.676 17.4668 817.207 17.5716 817.649 17.7812C818.096 17.9863 818.438 18.2666 818.675 18.6221C818.912 18.973 819.03 19.3695 819.03 19.8115H817.383C817.383 19.6156 817.333 19.4333 817.232 19.2646C817.137 19.0915 816.991 18.9525 816.795 18.8477C816.599 18.7383 816.353 18.6836 816.057 18.6836C815.774 18.6836 815.539 18.7292 815.353 18.8203C815.17 18.9069 815.034 19.0208 814.942 19.1621C814.856 19.3034 814.812 19.4583 814.812 19.627C814.812 19.75 814.835 19.8617 814.881 19.9619C814.931 20.0576 815.013 20.1465 815.127 20.2285C815.241 20.306 815.396 20.3789 815.592 20.4473C815.792 20.5156 816.043 20.5817 816.344 20.6455C816.909 20.764 817.394 20.9167 817.8 21.1035C818.21 21.2858 818.524 21.5228 818.743 21.8145C818.962 22.1016 819.071 22.4661 819.071 22.9082C819.071 23.2363 819.001 23.5371 818.859 23.8105C818.723 24.0794 818.522 24.3141 818.258 24.5146C817.993 24.7106 817.677 24.8633 817.308 24.9727C816.943 25.082 816.533 25.1367 816.077 25.1367C815.407 25.1367 814.84 25.0182 814.375 24.7812C813.91 24.5397 813.557 24.2321 813.315 23.8584C813.078 23.4801 812.96 23.0882 812.96 22.6826H814.553C814.571 22.988 814.655 23.2318 814.806 23.4141C814.961 23.5918 815.152 23.7217 815.38 23.8037C815.612 23.8812 815.852 23.9199 816.098 23.9199C816.394 23.9199 816.642 23.8812 816.843 23.8037C817.043 23.7217 817.196 23.6123 817.301 23.4756C817.406 23.3343 817.458 23.1748 817.458 22.9971ZM822.141 14.5V25H820.5V14.5H822.141ZM821.854 21.0283L821.32 21.0215C821.325 20.5111 821.396 20.0394 821.532 19.6064C821.674 19.1735 821.869 18.7975 822.12 18.4785C822.375 18.1549 822.681 17.9066 823.036 17.7334C823.392 17.5557 823.786 17.4668 824.219 17.4668C824.583 17.4668 824.911 17.5169 825.203 17.6172C825.499 17.7174 825.755 17.8792 825.969 18.1025C826.183 18.3213 826.345 18.6084 826.454 18.9639C826.568 19.3148 826.625 19.7432 826.625 20.249V25H824.971V20.2354C824.971 19.8799 824.918 19.5973 824.813 19.3877C824.713 19.1781 824.565 19.0277 824.369 18.9365C824.173 18.8408 823.934 18.793 823.651 18.793C823.355 18.793 823.093 18.8522 822.865 18.9707C822.642 19.0892 822.455 19.251 822.305 19.4561C822.154 19.6611 822.04 19.8981 821.963 20.167C821.89 20.4359 821.854 20.723 821.854 21.0283ZM828.3 14.5H829.947V23.4209L829.79 25H828.3V14.5ZM834.773 21.2334V21.377C834.773 21.9238 834.712 22.4274 834.589 22.8877C834.47 23.3434 834.288 23.7399 834.042 24.0771C833.8 24.4144 833.5 24.6764 833.14 24.8633C832.784 25.0456 832.372 25.1367 831.902 25.1367C831.442 25.1367 831.041 25.0501 830.699 24.877C830.357 24.7038 830.07 24.4577 829.838 24.1387C829.61 23.8197 829.425 23.4391 829.284 22.9971C829.143 22.555 829.043 22.0674 828.983 21.5342V21.0762C829.043 20.5384 829.143 20.0508 829.284 19.6133C829.425 19.1712 829.61 18.7907 829.838 18.4717C830.07 18.1481 830.355 17.8997 830.692 17.7266C831.034 17.5534 831.433 17.4668 831.889 17.4668C832.363 17.4668 832.78 17.5579 833.14 17.7402C833.504 17.9225 833.807 18.1823 834.049 18.5195C834.29 18.8522 834.47 19.2487 834.589 19.709C834.712 20.1693 834.773 20.6774 834.773 21.2334ZM833.126 21.377V21.2334C833.126 20.9007 833.099 20.5885 833.044 20.2969C832.989 20.0007 832.898 19.7409 832.771 19.5176C832.647 19.2943 832.479 19.1188 832.265 18.9912C832.055 18.859 831.793 18.793 831.479 18.793C831.187 18.793 830.936 18.8431 830.727 18.9434C830.517 19.0436 830.341 19.1803 830.2 19.3535C830.059 19.5267 829.947 19.7272 829.865 19.9551C829.788 20.1829 829.735 20.429 829.708 20.6934V21.9307C829.749 22.2725 829.836 22.5869 829.968 22.874C830.104 23.1566 830.296 23.3844 830.542 23.5576C830.788 23.7262 831.105 23.8105 831.492 23.8105C831.798 23.8105 832.055 23.749 832.265 23.626C832.474 23.5029 832.641 23.332 832.764 23.1133C832.891 22.89 832.982 22.6302 833.037 22.334C833.096 22.0378 833.126 21.7188 833.126 21.377ZM835.854 21.3838V21.2266C835.854 20.6934 835.931 20.1989 836.086 19.7432C836.241 19.2829 836.464 18.8841 836.756 18.5469C837.052 18.2051 837.412 17.9408 837.836 17.7539C838.264 17.5625 838.747 17.4668 839.285 17.4668C839.827 17.4668 840.311 17.5625 840.734 17.7539C841.163 17.9408 841.525 18.2051 841.821 18.5469C842.118 18.8841 842.343 19.2829 842.498 19.7432C842.653 20.1989 842.73 20.6934 842.73 21.2266V21.3838C842.73 21.917 842.653 22.4115 842.498 22.8672C842.343 23.3229 842.118 23.7217 841.821 24.0635C841.525 24.4007 841.165 24.665 840.741 24.8564C840.317 25.0433 839.837 25.1367 839.299 25.1367C838.757 25.1367 838.271 25.0433 837.843 24.8564C837.419 24.665 837.059 24.4007 836.763 24.0635C836.466 23.7217 836.241 23.3229 836.086 22.8672C835.931 22.4115 835.854 21.917 835.854 21.3838ZM837.501 21.2266V21.3838C837.501 21.7165 837.535 22.0309 837.604 22.3271C837.672 22.6234 837.779 22.8831 837.925 23.1064C838.071 23.3298 838.257 23.5052 838.485 23.6328C838.713 23.7604 838.984 23.8242 839.299 23.8242C839.604 23.8242 839.868 23.7604 840.092 23.6328C840.32 23.5052 840.507 23.3298 840.652 23.1064C840.798 22.8831 840.905 22.6234 840.974 22.3271C841.047 22.0309 841.083 21.7165 841.083 21.3838V21.2266C841.083 20.8984 841.047 20.5885 840.974 20.2969C840.905 20.0007 840.796 19.7386 840.646 19.5107C840.5 19.2829 840.313 19.1051 840.085 18.9775C839.862 18.8454 839.595 18.7793 839.285 18.7793C838.975 18.7793 838.706 18.8454 838.479 18.9775C838.255 19.1051 838.071 19.2829 837.925 19.5107C837.779 19.7386 837.672 20.0007 837.604 20.2969C837.535 20.5885 837.501 20.8984 837.501 21.2266ZM848.281 23.5166V19.9893C848.281 19.7249 848.233 19.4971 848.138 19.3057C848.042 19.1143 847.896 18.9661 847.7 18.8613C847.509 18.7565 847.267 18.7041 846.976 18.7041C846.707 18.7041 846.474 18.7497 846.278 18.8408C846.082 18.932 845.93 19.055 845.82 19.21C845.711 19.3649 845.656 19.5404 845.656 19.7363H844.016C844.016 19.4447 844.086 19.1621 844.228 18.8887C844.369 18.6152 844.574 18.3714 844.843 18.1572C845.112 17.943 845.433 17.7744 845.807 17.6514C846.18 17.5283 846.6 17.4668 847.064 17.4668C847.62 17.4668 848.113 17.5602 848.541 17.7471C848.974 17.9339 849.313 18.2165 849.56 18.5947C849.81 18.9684 849.936 19.4378 849.936 20.0029V23.291C849.936 23.6283 849.958 23.9313 850.004 24.2002C850.054 24.4645 850.125 24.6947 850.216 24.8906V25H848.527C848.45 24.8223 848.388 24.5967 848.343 24.3232C848.302 24.0452 848.281 23.7764 848.281 23.5166ZM848.521 20.502L848.534 21.5205H847.352C847.046 21.5205 846.777 21.5501 846.545 21.6094C846.312 21.6641 846.119 21.7461 845.964 21.8555C845.809 21.9648 845.693 22.097 845.615 22.252C845.538 22.4069 845.499 22.5824 845.499 22.7783C845.499 22.9743 845.545 23.1543 845.636 23.3184C845.727 23.4779 845.859 23.6032 846.032 23.6943C846.21 23.7855 846.424 23.8311 846.675 23.8311C847.012 23.8311 847.306 23.7627 847.557 23.626C847.812 23.4847 848.012 23.3138 848.158 23.1133C848.304 22.9082 848.382 22.7145 848.391 22.5322L848.924 23.2637C848.869 23.4505 848.776 23.651 848.644 23.8652C848.511 24.0794 848.338 24.2845 848.124 24.4805C847.914 24.6719 847.661 24.8291 847.365 24.9521C847.074 25.0752 846.736 25.1367 846.354 25.1367C845.87 25.1367 845.44 25.041 845.062 24.8496C844.683 24.6536 844.387 24.3916 844.173 24.0635C843.959 23.7308 843.852 23.3548 843.852 22.9355C843.852 22.5436 843.924 22.1973 844.07 21.8965C844.221 21.5911 844.439 21.3359 844.727 21.1309C845.018 20.9258 845.374 20.7708 845.793 20.666C846.212 20.5566 846.691 20.502 847.229 20.502H848.521ZM853.312 19.0117V25H851.665V17.6035H853.237L853.312 19.0117ZM855.575 17.5557L855.562 19.0869C855.461 19.0687 855.352 19.055 855.233 19.0459C855.119 19.0368 855.006 19.0322 854.892 19.0322C854.609 19.0322 854.361 19.0732 854.146 19.1553C853.932 19.2327 853.752 19.3467 853.606 19.4971C853.465 19.6429 853.356 19.8206 853.278 20.0303C853.201 20.2399 853.155 20.4746 853.142 20.7344L852.766 20.7617C852.766 20.2969 852.811 19.8662 852.902 19.4697C852.993 19.0732 853.13 18.7246 853.312 18.4238C853.499 18.123 853.732 17.8883 854.01 17.7197C854.292 17.5511 854.618 17.4668 854.987 17.4668C855.088 17.4668 855.195 17.4759 855.309 17.4941C855.427 17.5124 855.516 17.5329 855.575 17.5557ZM860.982 23.4688V14.5H862.637V25H861.14L860.982 23.4688ZM856.17 21.3838V21.2402C856.17 20.6797 856.236 20.1693 856.368 19.709C856.5 19.2441 856.692 18.8454 856.942 18.5127C857.193 18.1755 857.498 17.918 857.858 17.7402C858.218 17.5579 858.624 17.4668 859.075 17.4668C859.522 17.4668 859.914 17.5534 860.251 17.7266C860.588 17.8997 860.875 18.1481 861.112 18.4717C861.349 18.7907 861.538 19.1735 861.68 19.6201C861.821 20.0622 861.921 20.5544 861.98 21.0967V21.5547C861.921 22.0833 861.821 22.5664 861.68 23.0039C861.538 23.4414 861.349 23.8197 861.112 24.1387C860.875 24.4577 860.586 24.7038 860.244 24.877C859.907 25.0501 859.513 25.1367 859.062 25.1367C858.615 25.1367 858.212 25.0433 857.852 24.8564C857.496 24.6696 857.193 24.4076 856.942 24.0703C856.692 23.7331 856.5 23.3366 856.368 22.8809C856.236 22.4206 856.17 21.9215 856.17 21.3838ZM857.817 21.2402V21.3838C857.817 21.721 857.847 22.0355 857.906 22.3271C857.97 22.6188 858.068 22.8763 858.2 23.0996C858.332 23.3184 858.503 23.4915 858.713 23.6191C858.927 23.7422 859.182 23.8037 859.479 23.8037C859.852 23.8037 860.16 23.7217 860.401 23.5576C860.643 23.3936 860.832 23.1725 860.969 22.8945C861.11 22.612 861.206 22.2975 861.256 21.9512V20.7139C861.229 20.445 861.172 20.1943 861.085 19.9619C861.003 19.7295 860.891 19.5267 860.75 19.3535C860.609 19.1758 860.433 19.0391 860.224 18.9434C860.019 18.8431 859.775 18.793 859.492 18.793C859.191 18.793 858.936 18.8568 858.727 18.9844C858.517 19.112 858.344 19.2874 858.207 19.5107C858.075 19.734 857.977 19.9938 857.913 20.29C857.849 20.5863 857.817 20.903 857.817 21.2402Z" fill="#252B4B"/>
</g>
<rect opacity="0.25" x="884" y="10" width="2" height="20" fill="#252B4B"/>
<path opacity="0.25" d="M910.792 21.2881H908.201V19.9277H910.792C911.243 19.9277 911.608 19.8548 911.886 19.709C912.164 19.5632 912.367 19.3626 912.494 19.1074C912.626 18.8477 912.692 18.5514 912.692 18.2188C912.692 17.9043 912.626 17.6104 912.494 17.3369C912.367 17.0589 912.164 16.8356 911.886 16.667C911.608 16.4984 911.243 16.4141 910.792 16.4141H908.728V25H907.012V15.0469H910.792C911.562 15.0469 912.216 15.1836 912.754 15.457C913.296 15.7259 913.709 16.0996 913.991 16.5781C914.274 17.0521 914.415 17.5944 914.415 18.2051C914.415 18.8477 914.274 19.3991 913.991 19.8594C913.709 20.3197 913.296 20.6729 912.754 20.9189C912.216 21.165 911.562 21.2881 910.792 21.2881ZM917.443 19.0117V25H915.796V17.6035H917.368L917.443 19.0117ZM919.706 17.5557L919.692 19.0869C919.592 19.0687 919.483 19.055 919.364 19.0459C919.25 19.0368 919.136 19.0322 919.022 19.0322C918.74 19.0322 918.492 19.0732 918.277 19.1553C918.063 19.2327 917.883 19.3467 917.737 19.4971C917.596 19.6429 917.487 19.8206 917.409 20.0303C917.332 20.2399 917.286 20.4746 917.272 20.7344L916.896 20.7617C916.896 20.2969 916.942 19.8662 917.033 19.4697C917.124 19.0732 917.261 18.7246 917.443 18.4238C917.63 18.123 917.863 17.8883 918.141 17.7197C918.423 17.5511 918.749 17.4668 919.118 17.4668C919.218 17.4668 919.326 17.4759 919.439 17.4941C919.558 17.5124 919.647 17.5329 919.706 17.5557ZM920.246 21.3838V21.2266C920.246 20.6934 920.324 20.1989 920.479 19.7432C920.633 19.2829 920.857 18.8841 921.148 18.5469C921.445 18.2051 921.805 17.9408 922.229 17.7539C922.657 17.5625 923.14 17.4668 923.678 17.4668C924.22 17.4668 924.703 17.5625 925.127 17.7539C925.555 17.9408 925.918 18.2051 926.214 18.5469C926.51 18.8841 926.736 19.2829 926.891 19.7432C927.046 20.1989 927.123 20.6934 927.123 21.2266V21.3838C927.123 21.917 927.046 22.4115 926.891 22.8672C926.736 23.3229 926.51 23.7217 926.214 24.0635C925.918 24.4007 925.558 24.665 925.134 24.8564C924.71 25.0433 924.229 25.1367 923.691 25.1367C923.149 25.1367 922.664 25.0433 922.235 24.8564C921.812 24.665 921.451 24.4007 921.155 24.0635C920.859 23.7217 920.633 23.3229 920.479 22.8672C920.324 22.4115 920.246 21.917 920.246 21.3838ZM921.894 21.2266V21.3838C921.894 21.7165 921.928 22.0309 921.996 22.3271C922.064 22.6234 922.172 22.8831 922.317 23.1064C922.463 23.3298 922.65 23.5052 922.878 23.6328C923.106 23.7604 923.377 23.8242 923.691 23.8242C923.997 23.8242 924.261 23.7604 924.484 23.6328C924.712 23.5052 924.899 23.3298 925.045 23.1064C925.191 22.8831 925.298 22.6234 925.366 22.3271C925.439 22.0309 925.476 21.7165 925.476 21.3838V21.2266C925.476 20.8984 925.439 20.5885 925.366 20.2969C925.298 20.0007 925.188 19.7386 925.038 19.5107C924.892 19.2829 924.705 19.1051 924.478 18.9775C924.254 18.8454 923.988 18.7793 923.678 18.7793C923.368 18.7793 923.099 18.8454 922.871 18.9775C922.648 19.1051 922.463 19.2829 922.317 19.5107C922.172 19.7386 922.064 20.0007 921.996 20.2969C921.928 20.5885 921.894 20.8984 921.894 21.2266ZM928.586 17.6035H930.24V25.6426C930.24 26.1484 930.154 26.5745 929.98 26.9209C929.807 27.2718 929.552 27.5361 929.215 27.7139C928.878 27.8962 928.465 27.9873 927.978 27.9873C927.832 27.9873 927.681 27.9759 927.526 27.9531C927.367 27.9349 927.216 27.9076 927.075 27.8711L927.082 26.5859C927.178 26.6042 927.28 26.6178 927.39 26.627C927.494 26.6406 927.595 26.6475 927.69 26.6475C927.886 26.6475 928.05 26.6133 928.183 26.5449C928.315 26.4766 928.415 26.3695 928.483 26.2236C928.552 26.0778 928.586 25.8841 928.586 25.6426V17.6035ZM928.442 15.6621C928.442 15.4115 928.527 15.2041 928.695 15.04C928.864 14.8714 929.094 14.7871 929.386 14.7871C929.682 14.7871 929.912 14.8714 930.076 15.04C930.245 15.2041 930.329 15.4115 930.329 15.6621C930.329 15.9082 930.245 16.1133 930.076 16.2773C929.912 16.4414 929.682 16.5234 929.386 16.5234C929.094 16.5234 928.864 16.4414 928.695 16.2773C928.527 16.1133 928.442 15.9082 928.442 15.6621ZM935.278 25.1367C934.731 25.1367 934.237 25.0479 933.795 24.8701C933.357 24.6878 932.984 24.4349 932.674 24.1113C932.368 23.7878 932.134 23.4072 931.97 22.9697C931.806 22.5322 931.724 22.0605 931.724 21.5547V21.2812C931.724 20.7025 931.808 20.1784 931.977 19.709C932.145 19.2396 932.38 18.8385 932.681 18.5059C932.981 18.1686 933.337 17.9111 933.747 17.7334C934.157 17.5557 934.602 17.4668 935.08 17.4668C935.609 17.4668 936.071 17.5557 936.468 17.7334C936.864 17.9111 937.192 18.1618 937.452 18.4854C937.716 18.8044 937.912 19.1849 938.04 19.627C938.172 20.069 938.238 20.5566 938.238 21.0898V21.7939H932.523V20.6113H936.611V20.4814C936.602 20.1852 936.543 19.9072 936.434 19.6475C936.329 19.3877 936.167 19.1781 935.948 19.0186C935.729 18.859 935.438 18.7793 935.073 18.7793C934.8 18.7793 934.556 18.8385 934.342 18.957C934.132 19.071 933.957 19.2373 933.815 19.4561C933.674 19.6748 933.565 19.9391 933.487 20.249C933.414 20.5544 933.378 20.8984 933.378 21.2812V21.5547C933.378 21.8783 933.421 22.179 933.508 22.457C933.599 22.7305 933.731 22.9697 933.904 23.1748C934.077 23.3799 934.287 23.5417 934.533 23.6602C934.779 23.7741 935.06 23.8311 935.374 23.8311C935.771 23.8311 936.124 23.7513 936.434 23.5918C936.743 23.4323 937.012 23.2067 937.24 22.915L938.108 23.7559C937.949 23.9883 937.742 24.2116 937.486 24.4258C937.231 24.6354 936.919 24.8063 936.55 24.9385C936.185 25.0706 935.761 25.1367 935.278 25.1367ZM942.545 23.8242C942.814 23.8242 943.055 23.7718 943.27 23.667C943.488 23.5576 943.664 23.4072 943.796 23.2158C943.933 23.0244 944.008 22.8034 944.021 22.5527H945.573C945.564 23.0312 945.423 23.4665 945.149 23.8584C944.876 24.2503 944.514 24.5625 944.062 24.7949C943.611 25.0228 943.112 25.1367 942.565 25.1367C942 25.1367 941.508 25.041 941.089 24.8496C940.67 24.6536 940.321 24.3848 940.043 24.043C939.765 23.7012 939.555 23.307 939.414 22.8604C939.277 22.4137 939.209 21.9352 939.209 21.4248V21.1855C939.209 20.6751 939.277 20.1966 939.414 19.75C939.555 19.2988 939.765 18.9023 940.043 18.5605C940.321 18.2188 940.67 17.9521 941.089 17.7607C941.508 17.5648 941.998 17.4668 942.559 17.4668C943.151 17.4668 943.671 17.5853 944.117 17.8223C944.564 18.0547 944.915 18.3805 945.17 18.7998C945.43 19.2145 945.564 19.6976 945.573 20.249H944.021C944.008 19.9756 943.939 19.7295 943.816 19.5107C943.698 19.2874 943.529 19.1097 943.311 18.9775C943.096 18.8454 942.839 18.7793 942.538 18.7793C942.205 18.7793 941.93 18.8477 941.711 18.9844C941.492 19.1165 941.321 19.2988 941.198 19.5312C941.075 19.7591 940.986 20.0166 940.932 20.3037C940.882 20.5863 940.856 20.8802 940.856 21.1855V21.4248C940.856 21.7301 940.882 22.0264 940.932 22.3135C940.982 22.6006 941.068 22.8581 941.191 23.0859C941.319 23.3092 941.492 23.4893 941.711 23.626C941.93 23.7581 942.208 23.8242 942.545 23.8242ZM950.229 17.6035V18.8066H946.059V17.6035H950.229ZM947.262 15.792H948.909V22.9561C948.909 23.1839 948.941 23.3594 949.005 23.4824C949.073 23.6009 949.167 23.6807 949.285 23.7217C949.404 23.7627 949.543 23.7832 949.702 23.7832C949.816 23.7832 949.925 23.7764 950.03 23.7627C950.135 23.749 950.219 23.7354 950.283 23.7217L950.29 24.9795C950.153 25.0205 949.994 25.057 949.812 25.0889C949.634 25.1208 949.429 25.1367 949.196 25.1367C948.818 25.1367 948.483 25.0706 948.191 24.9385C947.9 24.8018 947.672 24.5807 947.508 24.2754C947.344 23.9701 947.262 23.5645 947.262 23.0586V15.792ZM958.042 25H955.916L955.93 23.6396H958.042C958.657 23.6396 959.172 23.5052 959.587 23.2363C960.006 22.9674 960.321 22.5824 960.53 22.0811C960.744 21.5798 960.852 20.9827 960.852 20.29V19.75C960.852 19.2122 960.79 18.736 960.667 18.3213C960.549 17.9066 960.371 17.5579 960.134 17.2754C959.901 16.9928 959.614 16.7786 959.272 16.6328C958.935 16.487 958.546 16.4141 958.104 16.4141H955.875V15.0469H958.104C958.764 15.0469 959.368 15.1585 959.915 15.3818C960.462 15.6006 960.934 15.9173 961.33 16.332C961.731 16.7467 962.039 17.2435 962.253 17.8223C962.467 18.401 962.574 19.0482 962.574 19.7637V20.29C962.574 21.0055 962.467 21.6527 962.253 22.2314C962.039 22.8102 961.731 23.307 961.33 23.7217C960.929 24.1318 960.451 24.4486 959.895 24.6719C959.343 24.8906 958.726 25 958.042 25ZM956.866 15.0469V25H955.15V15.0469H956.866ZM968.303 23.5166V19.9893C968.303 19.7249 968.255 19.4971 968.159 19.3057C968.063 19.1143 967.918 18.9661 967.722 18.8613C967.53 18.7565 967.289 18.7041 966.997 18.7041C966.728 18.7041 966.496 18.7497 966.3 18.8408C966.104 18.932 965.951 19.055 965.842 19.21C965.732 19.3649 965.678 19.5404 965.678 19.7363H964.037C964.037 19.4447 964.108 19.1621 964.249 18.8887C964.39 18.6152 964.595 18.3714 964.864 18.1572C965.133 17.943 965.454 17.7744 965.828 17.6514C966.202 17.5283 966.621 17.4668 967.086 17.4668C967.642 17.4668 968.134 17.5602 968.562 17.7471C968.995 17.9339 969.335 18.2165 969.581 18.5947C969.832 18.9684 969.957 19.4378 969.957 20.0029V23.291C969.957 23.6283 969.98 23.9313 970.025 24.2002C970.076 24.4645 970.146 24.6947 970.237 24.8906V25H968.549C968.471 24.8223 968.41 24.5967 968.364 24.3232C968.323 24.0452 968.303 23.7764 968.303 23.5166ZM968.542 20.502L968.556 21.5205H967.373C967.068 21.5205 966.799 21.5501 966.566 21.6094C966.334 21.6641 966.14 21.7461 965.985 21.8555C965.83 21.9648 965.714 22.097 965.637 22.252C965.559 22.4069 965.521 22.5824 965.521 22.7783C965.521 22.9743 965.566 23.1543 965.657 23.3184C965.748 23.4779 965.881 23.6032 966.054 23.6943C966.231 23.7855 966.446 23.8311 966.696 23.8311C967.034 23.8311 967.327 23.7627 967.578 23.626C967.833 23.4847 968.034 23.3138 968.18 23.1133C968.326 22.9082 968.403 22.7145 968.412 22.5322L968.945 23.2637C968.891 23.4505 968.797 23.651 968.665 23.8652C968.533 24.0794 968.36 24.2845 968.146 24.4805C967.936 24.6719 967.683 24.8291 967.387 24.9521C967.095 25.0752 966.758 25.1367 966.375 25.1367C965.892 25.1367 965.461 25.041 965.083 24.8496C964.705 24.6536 964.409 24.3916 964.194 24.0635C963.98 23.7308 963.873 23.3548 963.873 22.9355C963.873 22.5436 963.946 22.1973 964.092 21.8965C964.242 21.5911 964.461 21.3359 964.748 21.1309C965.04 20.9258 965.395 20.7708 965.814 20.666C966.234 20.5566 966.712 20.502 967.25 20.502H968.542ZM975.829 22.9971C975.829 22.833 975.788 22.6849 975.706 22.5527C975.624 22.416 975.467 22.293 975.234 22.1836C975.007 22.0742 974.669 21.974 974.223 21.8828C973.831 21.7962 973.471 21.6937 973.143 21.5752C972.819 21.4521 972.541 21.304 972.309 21.1309C972.076 20.9577 971.896 20.7526 971.769 20.5156C971.641 20.2786 971.577 20.0052 971.577 19.6953C971.577 19.3945 971.643 19.1097 971.775 18.8408C971.908 18.5719 972.097 18.335 972.343 18.1299C972.589 17.9248 972.887 17.763 973.238 17.6445C973.594 17.526 973.99 17.4668 974.428 17.4668C975.048 17.4668 975.578 17.5716 976.021 17.7812C976.467 17.9863 976.809 18.2666 977.046 18.6221C977.283 18.973 977.401 19.3695 977.401 19.8115H975.754C975.754 19.6156 975.704 19.4333 975.604 19.2646C975.508 19.0915 975.362 18.9525 975.166 18.8477C974.97 18.7383 974.724 18.6836 974.428 18.6836C974.145 18.6836 973.91 18.7292 973.724 18.8203C973.541 18.9069 973.405 19.0208 973.313 19.1621C973.227 19.3034 973.184 19.4583 973.184 19.627C973.184 19.75 973.206 19.8617 973.252 19.9619C973.302 20.0576 973.384 20.1465 973.498 20.2285C973.612 20.306 973.767 20.3789 973.963 20.4473C974.163 20.5156 974.414 20.5817 974.715 20.6455C975.28 20.764 975.765 20.9167 976.171 21.1035C976.581 21.2858 976.896 21.5228 977.114 21.8145C977.333 22.1016 977.442 22.4661 977.442 22.9082C977.442 23.2363 977.372 23.5371 977.23 23.8105C977.094 24.0794 976.893 24.3141 976.629 24.5146C976.365 24.7106 976.048 24.8633 975.679 24.9727C975.314 25.082 974.904 25.1367 974.448 25.1367C973.778 25.1367 973.211 25.0182 972.746 24.7812C972.281 24.5397 971.928 24.2321 971.687 23.8584C971.45 23.4801 971.331 23.0882 971.331 22.6826H972.924C972.942 22.988 973.026 23.2318 973.177 23.4141C973.332 23.5918 973.523 23.7217 973.751 23.8037C973.983 23.8812 974.223 23.9199 974.469 23.9199C974.765 23.9199 975.013 23.8812 975.214 23.8037C975.414 23.7217 975.567 23.6123 975.672 23.4756C975.777 23.3343 975.829 23.1748 975.829 22.9971ZM980.512 14.5V25H978.871V14.5H980.512ZM980.225 21.0283L979.691 21.0215C979.696 20.5111 979.767 20.0394 979.903 19.6064C980.045 19.1735 980.241 18.7975 980.491 18.4785C980.746 18.1549 981.052 17.9066 981.407 17.7334C981.763 17.5557 982.157 17.4668 982.59 17.4668C982.954 17.4668 983.283 17.5169 983.574 17.6172C983.87 17.7174 984.126 17.8792 984.34 18.1025C984.554 18.3213 984.716 18.6084 984.825 18.9639C984.939 19.3148 984.996 19.7432 984.996 20.249V25H983.342V20.2354C983.342 19.8799 983.289 19.5973 983.185 19.3877C983.084 19.1781 982.936 19.0277 982.74 18.9365C982.544 18.8408 982.305 18.793 982.022 18.793C981.726 18.793 981.464 18.8522 981.236 18.9707C981.013 19.0892 980.826 19.251 980.676 19.4561C980.525 19.6611 980.411 19.8981 980.334 20.167C980.261 20.4359 980.225 20.723 980.225 21.0283ZM986.671 14.5H988.318V23.4209L988.161 25H986.671V14.5ZM993.145 21.2334V21.377C993.145 21.9238 993.083 22.4274 992.96 22.8877C992.841 23.3434 992.659 23.7399 992.413 24.0771C992.172 24.4144 991.871 24.6764 991.511 24.8633C991.155 25.0456 990.743 25.1367 990.273 25.1367C989.813 25.1367 989.412 25.0501 989.07 24.877C988.729 24.7038 988.441 24.4577 988.209 24.1387C987.981 23.8197 987.797 23.4391 987.655 22.9971C987.514 22.555 987.414 22.0674 987.354 21.5342V21.0762C987.414 20.5384 987.514 20.0508 987.655 19.6133C987.797 19.1712 987.981 18.7907 988.209 18.4717C988.441 18.1481 988.726 17.8997 989.063 17.7266C989.405 17.5534 989.804 17.4668 990.26 17.4668C990.734 17.4668 991.151 17.5579 991.511 17.7402C991.875 17.9225 992.178 18.1823 992.42 18.5195C992.661 18.8522 992.841 19.2487 992.96 19.709C993.083 20.1693 993.145 20.6774 993.145 21.2334ZM991.497 21.377V21.2334C991.497 20.9007 991.47 20.5885 991.415 20.2969C991.36 20.0007 991.269 19.7409 991.142 19.5176C991.019 19.2943 990.85 19.1188 990.636 18.9912C990.426 18.859 990.164 18.793 989.85 18.793C989.558 18.793 989.307 18.8431 989.098 18.9434C988.888 19.0436 988.713 19.1803 988.571 19.3535C988.43 19.5267 988.318 19.7272 988.236 19.9551C988.159 20.1829 988.106 20.429 988.079 20.6934V21.9307C988.12 22.2725 988.207 22.5869 988.339 22.874C988.476 23.1566 988.667 23.3844 988.913 23.5576C989.159 23.7262 989.476 23.8105 989.863 23.8105C990.169 23.8105 990.426 23.749 990.636 23.626C990.845 23.5029 991.012 23.332 991.135 23.1133C991.262 22.89 991.354 22.6302 991.408 22.334C991.467 22.0378 991.497 21.7188 991.497 21.377ZM994.225 21.3838V21.2266C994.225 20.6934 994.302 20.1989 994.457 19.7432C994.612 19.2829 994.835 18.8841 995.127 18.5469C995.423 18.2051 995.783 17.9408 996.207 17.7539C996.635 17.5625 997.118 17.4668 997.656 17.4668C998.199 17.4668 998.682 17.5625 999.105 17.7539C999.534 17.9408 999.896 18.2051 1000.19 18.5469C1000.49 18.8841 1000.71 19.2829 1000.87 19.7432C1001.02 20.1989 1001.1 20.6934 1001.1 21.2266V21.3838C1001.1 21.917 1001.02 22.4115 1000.87 22.8672C1000.71 23.3229 1000.49 23.7217 1000.19 24.0635C999.896 24.4007 999.536 24.665 999.112 24.8564C998.688 25.0433 998.208 25.1367 997.67 25.1367C997.128 25.1367 996.642 25.0433 996.214 24.8564C995.79 24.665 995.43 24.4007 995.134 24.0635C994.838 23.7217 994.612 23.3229 994.457 22.8672C994.302 22.4115 994.225 21.917 994.225 21.3838ZM995.872 21.2266V21.3838C995.872 21.7165 995.906 22.0309 995.975 22.3271C996.043 22.6234 996.15 22.8831 996.296 23.1064C996.442 23.3298 996.629 23.5052 996.856 23.6328C997.084 23.7604 997.355 23.8242 997.67 23.8242C997.975 23.8242 998.24 23.7604 998.463 23.6328C998.691 23.5052 998.878 23.3298 999.023 23.1064C999.169 22.8831 999.276 22.6234 999.345 22.3271C999.418 22.0309 999.454 21.7165 999.454 21.3838V21.2266C999.454 20.8984 999.418 20.5885 999.345 20.2969C999.276 20.0007 999.167 19.7386 999.017 19.5107C998.871 19.2829 998.684 19.1051 998.456 18.9775C998.233 18.8454 997.966 18.7793 997.656 18.7793C997.346 18.7793 997.077 18.8454 996.85 18.9775C996.626 19.1051 996.442 19.2829 996.296 19.5107C996.15 19.7386 996.043 20.0007 995.975 20.2969C995.906 20.5885 995.872 20.8984 995.872 21.2266ZM1006.65 23.5166V19.9893C1006.65 19.7249 1006.6 19.4971 1006.51 19.3057C1006.41 19.1143 1006.27 18.9661 1006.07 18.8613C1005.88 18.7565 1005.64 18.7041 1005.35 18.7041C1005.08 18.7041 1004.85 18.7497 1004.65 18.8408C1004.45 18.932 1004.3 19.055 1004.19 19.21C1004.08 19.3649 1004.03 19.5404 1004.03 19.7363H1002.39C1002.39 19.4447 1002.46 19.1621 1002.6 18.8887C1002.74 18.6152 1002.94 18.3714 1003.21 18.1572C1003.48 17.943 1003.8 17.7744 1004.18 17.6514C1004.55 17.5283 1004.97 17.4668 1005.44 17.4668C1005.99 17.4668 1006.48 17.5602 1006.91 17.7471C1007.35 17.9339 1007.68 18.2165 1007.93 18.5947C1008.18 18.9684 1008.31 19.4378 1008.31 20.0029V23.291C1008.31 23.6283 1008.33 23.9313 1008.38 24.2002C1008.43 24.4645 1008.5 24.6947 1008.59 24.8906V25H1006.9C1006.82 24.8223 1006.76 24.5967 1006.71 24.3232C1006.67 24.0452 1006.65 23.7764 1006.65 23.5166ZM1006.89 20.502L1006.91 21.5205H1005.72C1005.42 21.5205 1005.15 21.5501 1004.92 21.6094C1004.68 21.6641 1004.49 21.7461 1004.33 21.8555C1004.18 21.9648 1004.06 22.097 1003.99 22.252C1003.91 22.4069 1003.87 22.5824 1003.87 22.7783C1003.87 22.9743 1003.92 23.1543 1004.01 23.3184C1004.1 23.4779 1004.23 23.6032 1004.4 23.6943C1004.58 23.7855 1004.8 23.8311 1005.05 23.8311C1005.38 23.8311 1005.68 23.7627 1005.93 23.626C1006.18 23.4847 1006.38 23.3138 1006.53 23.1133C1006.68 22.9082 1006.75 22.7145 1006.76 22.5322L1007.29 23.2637C1007.24 23.4505 1007.15 23.651 1007.01 23.8652C1006.88 24.0794 1006.71 24.2845 1006.5 24.4805C1006.29 24.6719 1006.03 24.8291 1005.74 24.9521C1005.44 25.0752 1005.11 25.1367 1004.72 25.1367C1004.24 25.1367 1003.81 25.041 1003.43 24.8496C1003.05 24.6536 1002.76 24.3916 1002.54 24.0635C1002.33 23.7308 1002.22 23.3548 1002.22 22.9355C1002.22 22.5436 1002.3 22.1973 1002.44 21.8965C1002.59 21.5911 1002.81 21.3359 1003.1 21.1309C1003.39 20.9258 1003.74 20.7708 1004.16 20.666C1004.58 20.5566 1005.06 20.502 1005.6 20.502H1006.89ZM1011.68 19.0117V25H1010.04V17.6035H1011.61L1011.68 19.0117ZM1013.95 17.5557L1013.93 19.0869C1013.83 19.0687 1013.72 19.055 1013.6 19.0459C1013.49 19.0368 1013.38 19.0322 1013.26 19.0322C1012.98 19.0322 1012.73 19.0732 1012.52 19.1553C1012.3 19.2327 1012.12 19.3467 1011.98 19.4971C1011.84 19.6429 1011.73 19.8206 1011.65 20.0303C1011.57 20.2399 1011.53 20.4746 1011.51 20.7344L1011.14 20.7617C1011.14 20.2969 1011.18 19.8662 1011.27 19.4697C1011.36 19.0732 1011.5 18.7246 1011.68 18.4238C1011.87 18.123 1012.1 17.8883 1012.38 17.7197C1012.66 17.5511 1012.99 17.4668 1013.36 17.4668C1013.46 17.4668 1013.57 17.4759 1013.68 17.4941C1013.8 17.5124 1013.89 17.5329 1013.95 17.5557ZM1019.35 23.4688V14.5H1021.01V25H1019.51L1019.35 23.4688ZM1014.54 21.3838V21.2402C1014.54 20.6797 1014.61 20.1693 1014.74 19.709C1014.87 19.2441 1015.06 18.8454 1015.31 18.5127C1015.56 18.1755 1015.87 17.918 1016.23 17.7402C1016.59 17.5579 1017 17.4668 1017.45 17.4668C1017.89 17.4668 1018.28 17.5534 1018.62 17.7266C1018.96 17.8997 1019.25 18.1481 1019.48 18.4717C1019.72 18.7907 1019.91 19.1735 1020.05 19.6201C1020.19 20.0622 1020.29 20.5544 1020.35 21.0967V21.5547C1020.29 22.0833 1020.19 22.5664 1020.05 23.0039C1019.91 23.4414 1019.72 23.8197 1019.48 24.1387C1019.25 24.4577 1018.96 24.7038 1018.62 24.877C1018.28 25.0501 1017.88 25.1367 1017.43 25.1367C1016.99 25.1367 1016.58 25.0433 1016.22 24.8564C1015.87 24.6696 1015.56 24.4076 1015.31 24.0703C1015.06 23.7331 1014.87 23.3366 1014.74 22.8809C1014.61 22.4206 1014.54 21.9215 1014.54 21.3838ZM1016.19 21.2402V21.3838C1016.19 21.721 1016.22 22.0355 1016.28 22.3271C1016.34 22.6188 1016.44 22.8763 1016.57 23.0996C1016.7 23.3184 1016.87 23.4915 1017.08 23.6191C1017.3 23.7422 1017.55 23.8037 1017.85 23.8037C1018.22 23.8037 1018.53 23.7217 1018.77 23.5576C1019.01 23.3936 1019.2 23.1725 1019.34 22.8945C1019.48 22.612 1019.58 22.2975 1019.63 21.9512V20.7139C1019.6 20.445 1019.54 20.1943 1019.46 19.9619C1019.37 19.7295 1019.26 19.5267 1019.12 19.3535C1018.98 19.1758 1018.8 19.0391 1018.59 18.9434C1018.39 18.8431 1018.15 18.793 1017.86 18.793C1017.56 18.793 1017.31 18.8568 1017.1 18.9844C1016.89 19.112 1016.71 19.2874 1016.58 19.5107C1016.45 19.734 1016.35 19.9938 1016.28 20.29C1016.22 20.5863 1016.19 20.903 1016.19 21.2402Z" fill="#252B4B"/>
</svg>
