<svg width="232" height="40" viewBox="0 0 232 40" fill="none" xmlns="http://www.w3.org/2000/svg">
<rect width="232" height="40" rx="8" fill="white"/>
<path d="M25.4824 15.0264V25H23.5137V17.2959L21.1484 18.0479V16.4961L25.2705 15.0264H25.4824ZM35.6953 21.2812V22.8262H28.5244L28.4287 21.6299L32.5781 15.0469H34.1436L32.4482 17.8838L30.3838 21.2812H35.6953ZM34.5674 15.0469V25H32.5986V15.0469H34.5674ZM45.6348 22.3955C45.6348 22.2178 45.6074 22.0583 45.5527 21.917C45.5026 21.7712 45.4069 21.639 45.2656 21.5205C45.1243 21.3975 44.9261 21.2767 44.6709 21.1582C44.4157 21.0397 44.0853 20.9167 43.6797 20.7891C43.2285 20.6432 42.8001 20.4792 42.3945 20.2969C41.9935 20.1146 41.638 19.9027 41.3281 19.6611C41.0228 19.415 40.7812 19.1302 40.6035 18.8066C40.4303 18.4831 40.3438 18.1071 40.3438 17.6787C40.3438 17.264 40.4349 16.888 40.6172 16.5508C40.7995 16.209 41.0547 15.9173 41.3828 15.6758C41.7109 15.4297 42.0983 15.2406 42.5449 15.1084C42.9961 14.9762 43.4906 14.9102 44.0283 14.9102C44.762 14.9102 45.4023 15.0423 45.9492 15.3066C46.4961 15.571 46.9199 15.9333 47.2207 16.3936C47.526 16.8538 47.6787 17.3802 47.6787 17.9727H45.6416C45.6416 17.681 45.5801 17.4258 45.457 17.207C45.3385 16.9837 45.1562 16.8083 44.9102 16.6807C44.6686 16.5531 44.3633 16.4893 43.9941 16.4893C43.6387 16.4893 43.3424 16.5439 43.1055 16.6533C42.8685 16.7581 42.6908 16.9017 42.5723 17.084C42.4538 17.2617 42.3945 17.4622 42.3945 17.6855C42.3945 17.8542 42.4355 18.0068 42.5176 18.1436C42.6042 18.2803 42.7318 18.4079 42.9004 18.5264C43.069 18.6449 43.2764 18.7565 43.5225 18.8613C43.7686 18.9661 44.0534 19.0687 44.377 19.1689C44.9193 19.333 45.3955 19.5176 45.8057 19.7227C46.2204 19.9277 46.5667 20.1579 46.8447 20.4131C47.1227 20.6683 47.3324 20.9577 47.4736 21.2812C47.6149 21.6048 47.6855 21.9717 47.6855 22.3818C47.6855 22.8148 47.6012 23.2021 47.4326 23.5439C47.264 23.8857 47.0202 24.1751 46.7012 24.4121C46.3822 24.6491 46.0016 24.8291 45.5596 24.9521C45.1175 25.0752 44.623 25.1367 44.0762 25.1367C43.584 25.1367 43.0986 25.0729 42.6201 24.9453C42.1416 24.8132 41.7064 24.6149 41.3145 24.3506C40.9271 24.0863 40.6172 23.749 40.3848 23.3389C40.1523 22.9287 40.0361 22.4434 40.0361 21.8828H42.0938C42.0938 22.1927 42.1416 22.4548 42.2373 22.6689C42.333 22.8831 42.4674 23.0563 42.6406 23.1885C42.8184 23.3206 43.028 23.4163 43.2695 23.4756C43.5156 23.5348 43.7845 23.5645 44.0762 23.5645C44.4316 23.5645 44.7233 23.5143 44.9512 23.4141C45.1836 23.3138 45.3545 23.1748 45.4639 22.9971C45.5778 22.8193 45.6348 22.6188 45.6348 22.3955ZM52.3613 25.1367C51.7871 25.1367 51.2721 25.0456 50.8164 24.8633C50.3607 24.6764 49.9733 24.4189 49.6543 24.0908C49.3398 23.7627 49.0983 23.3822 48.9297 22.9492C48.7611 22.5117 48.6768 22.0469 48.6768 21.5547V21.2812C48.6768 20.7207 48.7565 20.208 48.916 19.7432C49.0755 19.2783 49.3034 18.875 49.5996 18.5332C49.9004 18.1914 50.265 17.9294 50.6934 17.7471C51.1217 17.5602 51.6048 17.4668 52.1426 17.4668C52.6667 17.4668 53.1315 17.5534 53.5371 17.7266C53.9427 17.8997 54.2822 18.1458 54.5557 18.4648C54.8337 18.7839 55.0433 19.1667 55.1846 19.6133C55.3258 20.0553 55.3965 20.5475 55.3965 21.0898V21.9102H49.5176V20.5977H53.4619V20.4473C53.4619 20.1738 53.4118 19.93 53.3115 19.7158C53.2158 19.4971 53.07 19.3239 52.874 19.1963C52.6781 19.0687 52.4274 19.0049 52.1221 19.0049C51.8623 19.0049 51.639 19.0618 51.4521 19.1758C51.2653 19.2897 51.1126 19.4492 50.9941 19.6543C50.8802 19.8594 50.7936 20.1009 50.7344 20.3789C50.6797 20.6523 50.6523 20.9531 50.6523 21.2812V21.5547C50.6523 21.8509 50.6934 22.1243 50.7754 22.375C50.862 22.6257 50.9827 22.8421 51.1377 23.0244C51.2972 23.2067 51.4886 23.348 51.7119 23.4482C51.9398 23.5485 52.1973 23.5986 52.4844 23.5986C52.8398 23.5986 53.1702 23.5303 53.4756 23.3936C53.7855 23.2523 54.0521 23.0404 54.2754 22.7578L55.2324 23.7969C55.0775 24.0202 54.8656 24.2344 54.5967 24.4395C54.3324 24.6445 54.0133 24.8132 53.6396 24.9453C53.266 25.0729 52.8398 25.1367 52.3613 25.1367ZM58.4863 19.0254V27.8438H56.5176V17.6035H58.3428L58.4863 19.0254ZM63.1689 21.2197V21.3633C63.1689 21.901 63.1051 22.4001 62.9775 22.8604C62.8545 23.3206 62.6722 23.7217 62.4307 24.0635C62.1891 24.4007 61.8883 24.665 61.5283 24.8564C61.1729 25.0433 60.7627 25.1367 60.2979 25.1367C59.8467 25.1367 59.4548 25.0456 59.1221 24.8633C58.7894 24.681 58.5091 24.4258 58.2812 24.0977C58.0579 23.765 57.8779 23.3799 57.7412 22.9424C57.6045 22.5049 57.4997 22.0355 57.4268 21.5342V21.1582C57.4997 20.6204 57.6045 20.1283 57.7412 19.6816C57.8779 19.2305 58.0579 18.8408 58.2812 18.5127C58.5091 18.18 58.7871 17.9225 59.1152 17.7402C59.4479 17.5579 59.8376 17.4668 60.2842 17.4668C60.7536 17.4668 61.166 17.5557 61.5215 17.7334C61.8815 17.9111 62.1823 18.1663 62.4238 18.499C62.6699 18.8317 62.8545 19.2282 62.9775 19.6885C63.1051 20.1488 63.1689 20.6592 63.1689 21.2197ZM61.1934 21.3633V21.2197C61.1934 20.9053 61.166 20.6159 61.1113 20.3516C61.0612 20.0827 60.9792 19.848 60.8652 19.6475C60.7559 19.4469 60.61 19.292 60.4277 19.1826C60.25 19.0687 60.0335 19.0117 59.7783 19.0117C59.5094 19.0117 59.2793 19.055 59.0879 19.1416C58.901 19.2282 58.7484 19.3535 58.6299 19.5176C58.5114 19.6816 58.4225 19.8776 58.3633 20.1055C58.304 20.3333 58.2676 20.5908 58.2539 20.8779V21.8281C58.2767 22.1654 58.3405 22.4684 58.4453 22.7373C58.5501 23.0016 58.7119 23.2113 58.9307 23.3662C59.1494 23.5212 59.4365 23.5986 59.792 23.5986C60.0518 23.5986 60.2705 23.5417 60.4482 23.4277C60.626 23.3092 60.7695 23.1475 60.8789 22.9424C60.9928 22.7373 61.0726 22.5003 61.1182 22.2314C61.1683 21.9626 61.1934 21.6732 61.1934 21.3633ZM68.0156 17.6035V18.998H63.709V17.6035H68.0156ZM64.7754 15.7783H66.7441V22.7715C66.7441 22.9857 66.7715 23.1497 66.8262 23.2637C66.8854 23.3776 66.972 23.4574 67.0859 23.5029C67.1999 23.5439 67.3434 23.5645 67.5166 23.5645C67.6396 23.5645 67.749 23.5599 67.8447 23.5508C67.945 23.5371 68.0293 23.5234 68.0977 23.5098L68.1045 24.959C67.9359 25.0137 67.7536 25.057 67.5576 25.0889C67.3617 25.1208 67.1452 25.1367 66.9082 25.1367C66.4753 25.1367 66.097 25.0661 65.7734 24.9248C65.4544 24.779 65.2083 24.5465 65.0352 24.2275C64.862 23.9085 64.7754 23.4893 64.7754 22.9697V15.7783ZM72.541 25.1367C71.9668 25.1367 71.4518 25.0456 70.9961 24.8633C70.5404 24.6764 70.153 24.4189 69.834 24.0908C69.5195 23.7627 69.278 23.3822 69.1094 22.9492C68.9408 22.5117 68.8564 22.0469 68.8564 21.5547V21.2812C68.8564 20.7207 68.9362 20.208 69.0957 19.7432C69.2552 19.2783 69.4831 18.875 69.7793 18.5332C70.0801 18.1914 70.4447 17.9294 70.873 17.7471C71.3014 17.5602 71.7845 17.4668 72.3223 17.4668C72.8464 17.4668 73.3112 17.5534 73.7168 17.7266C74.1224 17.8997 74.4619 18.1458 74.7354 18.4648C75.0133 18.7839 75.223 19.1667 75.3643 19.6133C75.5055 20.0553 75.5762 20.5475 75.5762 21.0898V21.9102H69.6973V20.5977H73.6416V20.4473C73.6416 20.1738 73.5915 19.93 73.4912 19.7158C73.3955 19.4971 73.2497 19.3239 73.0537 19.1963C72.8577 19.0687 72.6071 19.0049 72.3018 19.0049C72.042 19.0049 71.8187 19.0618 71.6318 19.1758C71.445 19.2897 71.2923 19.4492 71.1738 19.6543C71.0599 19.8594 70.9733 20.1009 70.9141 20.3789C70.8594 20.6523 70.832 20.9531 70.832 21.2812V21.5547C70.832 21.8509 70.873 22.1243 70.9551 22.375C71.0417 22.6257 71.1624 22.8421 71.3174 23.0244C71.4769 23.2067 71.6683 23.348 71.8916 23.4482C72.1195 23.5485 72.377 23.5986 72.6641 23.5986C73.0195 23.5986 73.3499 23.5303 73.6553 23.3936C73.9652 23.2523 74.2318 23.0404 74.4551 22.7578L75.4121 23.7969C75.2572 24.0202 75.0452 24.2344 74.7764 24.4395C74.512 24.6445 74.193 24.8132 73.8193 24.9453C73.4456 25.0729 73.0195 25.1367 72.541 25.1367ZM78.666 19.1348V25H76.6904V17.6035H78.543L78.666 19.1348ZM78.3926 21.042H77.8457C77.8457 20.527 77.9072 20.0531 78.0303 19.6201C78.1579 19.1826 78.3424 18.8044 78.584 18.4854C78.8301 18.1618 79.1331 17.9111 79.4932 17.7334C79.8532 17.5557 80.2702 17.4668 80.7441 17.4668C81.0723 17.4668 81.373 17.5169 81.6465 17.6172C81.9199 17.7129 82.1546 17.8656 82.3506 18.0752C82.5511 18.2803 82.7061 18.5492 82.8154 18.8818C82.9248 19.21 82.9795 19.6042 82.9795 20.0645V25H81.0107V20.2832C81.0107 19.946 80.9652 19.6862 80.874 19.5039C80.7829 19.3216 80.653 19.194 80.4844 19.1211C80.3203 19.0482 80.1221 19.0117 79.8896 19.0117C79.6344 19.0117 79.4111 19.0641 79.2197 19.1689C79.0329 19.2738 78.8779 19.4196 78.7549 19.6064C78.6318 19.7887 78.5407 20.0029 78.4814 20.249C78.4222 20.4951 78.3926 20.7594 78.3926 21.042ZM82.7949 20.8164L82.0908 20.9053C82.0908 20.4222 82.1501 19.9733 82.2686 19.5586C82.3916 19.1439 82.5716 18.7793 82.8086 18.4648C83.0501 18.1504 83.3486 17.9066 83.7041 17.7334C84.0596 17.5557 84.4697 17.4668 84.9346 17.4668C85.29 17.4668 85.6136 17.5192 85.9053 17.624C86.1969 17.7243 86.4453 17.8861 86.6504 18.1094C86.86 18.3281 87.0195 18.6152 87.1289 18.9707C87.2428 19.3262 87.2998 19.7614 87.2998 20.2764V25H85.3242V20.2764C85.3242 19.9346 85.2786 19.6748 85.1875 19.4971C85.1009 19.3148 84.9733 19.1895 84.8047 19.1211C84.6406 19.0482 84.4447 19.0117 84.2168 19.0117C83.9798 19.0117 83.7725 19.0596 83.5947 19.1553C83.417 19.2464 83.2689 19.374 83.1504 19.5381C83.0319 19.7021 82.943 19.8936 82.8838 20.1123C82.8245 20.3265 82.7949 20.5612 82.7949 20.8164ZM88.8242 14.5H90.793V23.3047L90.5947 25H88.8242V14.5ZM95.4756 21.2266V21.3701C95.4756 21.9215 95.4163 22.4274 95.2979 22.8877C95.1839 23.348 95.0062 23.7467 94.7646 24.084C94.5231 24.4167 94.2223 24.6764 93.8623 24.8633C93.5068 25.0456 93.0876 25.1367 92.6045 25.1367C92.1533 25.1367 91.7614 25.0456 91.4287 24.8633C91.1006 24.681 90.8249 24.4235 90.6016 24.0908C90.3783 23.7581 90.1982 23.3685 90.0615 22.9219C89.9248 22.4753 89.8223 21.9876 89.7539 21.459V21.1445C89.8223 20.6159 89.9248 20.1283 90.0615 19.6816C90.1982 19.235 90.3783 18.8454 90.6016 18.5127C90.8249 18.18 91.1006 17.9225 91.4287 17.7402C91.7568 17.5579 92.1442 17.4668 92.5908 17.4668C93.0785 17.4668 93.5023 17.5602 93.8623 17.7471C94.2269 17.9294 94.5277 18.1891 94.7646 18.5264C95.0062 18.859 95.1839 19.2555 95.2979 19.7158C95.4163 20.1715 95.4756 20.6751 95.4756 21.2266ZM93.5068 21.3701V21.2266C93.5068 20.9258 93.484 20.6432 93.4385 20.3789C93.3975 20.11 93.3245 19.8753 93.2197 19.6748C93.1149 19.4697 92.9714 19.3079 92.7891 19.1895C92.6113 19.071 92.3812 19.0117 92.0986 19.0117C91.8298 19.0117 91.6019 19.0573 91.415 19.1484C91.2282 19.2396 91.0732 19.3672 90.9502 19.5312C90.8317 19.6953 90.7428 19.8913 90.6836 20.1191C90.6243 20.3424 90.5879 20.5885 90.5742 20.8574V21.7529C90.5879 22.113 90.6471 22.432 90.752 22.71C90.8613 22.9834 91.0254 23.1999 91.2441 23.3594C91.4674 23.5143 91.7568 23.5918 92.1123 23.5918C92.3903 23.5918 92.6204 23.5371 92.8027 23.4277C92.985 23.3184 93.1263 23.1634 93.2266 22.9629C93.3314 22.7624 93.4043 22.5277 93.4453 22.2588C93.4863 21.9854 93.5068 21.6891 93.5068 21.3701ZM100.104 25.1367C99.5293 25.1367 99.0143 25.0456 98.5586 24.8633C98.1029 24.6764 97.7155 24.4189 97.3965 24.0908C97.082 23.7627 96.8405 23.3822 96.6719 22.9492C96.5033 22.5117 96.4189 22.0469 96.4189 21.5547V21.2812C96.4189 20.7207 96.4987 20.208 96.6582 19.7432C96.8177 19.2783 97.0456 18.875 97.3418 18.5332C97.6426 18.1914 98.0072 17.9294 98.4355 17.7471C98.8639 17.5602 99.347 17.4668 99.8848 17.4668C100.409 17.4668 100.874 17.5534 101.279 17.7266C101.685 17.8997 102.024 18.1458 102.298 18.4648C102.576 18.7839 102.785 19.1667 102.927 19.6133C103.068 20.0553 103.139 20.5475 103.139 21.0898V21.9102H97.2598V20.5977H101.204V20.4473C101.204 20.1738 101.154 19.93 101.054 19.7158C100.958 19.4971 100.812 19.3239 100.616 19.1963C100.42 19.0687 100.17 19.0049 99.8643 19.0049C99.6045 19.0049 99.3812 19.0618 99.1943 19.1758C99.0075 19.2897 98.8548 19.4492 98.7363 19.6543C98.6224 19.8594 98.5358 20.1009 98.4766 20.3789C98.4219 20.6523 98.3945 20.9531 98.3945 21.2812V21.5547C98.3945 21.8509 98.4355 22.1243 98.5176 22.375C98.6042 22.6257 98.7249 22.8421 98.8799 23.0244C99.0394 23.2067 99.2308 23.348 99.4541 23.4482C99.682 23.5485 99.9395 23.5986 100.227 23.5986C100.582 23.5986 100.912 23.5303 101.218 23.3936C101.528 23.2523 101.794 23.0404 102.018 22.7578L102.975 23.7969C102.82 24.0202 102.608 24.2344 102.339 24.4395C102.075 24.6445 101.756 24.8132 101.382 24.9453C101.008 25.0729 100.582 25.1367 100.104 25.1367ZM106.229 19.2168V25H104.26V17.6035H106.112L106.229 19.2168ZM108.457 17.5557L108.423 19.3809C108.327 19.3672 108.211 19.3558 108.074 19.3467C107.942 19.333 107.821 19.3262 107.712 19.3262C107.434 19.3262 107.192 19.3626 106.987 19.4355C106.787 19.5039 106.618 19.6064 106.481 19.7432C106.349 19.8799 106.249 20.0462 106.181 20.2422C106.117 20.4382 106.08 20.6615 106.071 20.9121L105.675 20.7891C105.675 20.3105 105.723 19.8708 105.818 19.4697C105.914 19.0641 106.053 18.7109 106.235 18.4102C106.422 18.1094 106.65 17.877 106.919 17.7129C107.188 17.5488 107.495 17.4668 107.842 17.4668C107.951 17.4668 108.063 17.4759 108.177 17.4941C108.291 17.5078 108.384 17.5283 108.457 17.5557ZM119.6 23.4619V25H112.791V23.6875L116.011 20.2354C116.334 19.8753 116.59 19.5586 116.776 19.2852C116.963 19.0072 117.098 18.7588 117.18 18.54C117.266 18.3167 117.31 18.1048 117.31 17.9043C117.31 17.6035 117.259 17.346 117.159 17.1318C117.059 16.9131 116.911 16.7445 116.715 16.626C116.523 16.5075 116.286 16.4482 116.004 16.4482C115.703 16.4482 115.443 16.5212 115.225 16.667C115.01 16.8128 114.846 17.0156 114.732 17.2754C114.623 17.5352 114.568 17.8291 114.568 18.1572H112.593C112.593 17.5648 112.734 17.0225 113.017 16.5303C113.299 16.0335 113.698 15.6393 114.213 15.3477C114.728 15.0514 115.339 14.9033 116.045 14.9033C116.742 14.9033 117.33 15.0173 117.809 15.2451C118.292 15.4684 118.656 15.792 118.902 16.2158C119.153 16.6351 119.278 17.1364 119.278 17.7197C119.278 18.0479 119.226 18.3691 119.121 18.6836C119.016 18.9935 118.866 19.3034 118.67 19.6133C118.479 19.9186 118.246 20.2285 117.973 20.543C117.699 20.8574 117.396 21.1833 117.063 21.5205L115.334 23.4619H119.6ZM127.529 19.1484V20.8711C127.529 21.6185 127.45 22.2633 127.29 22.8057C127.131 23.3434 126.9 23.7855 126.6 24.1318C126.303 24.4736 125.95 24.7266 125.54 24.8906C125.13 25.0547 124.674 25.1367 124.173 25.1367C123.772 25.1367 123.398 25.0866 123.052 24.9863C122.705 24.8815 122.393 24.7197 122.115 24.501C121.842 24.2822 121.605 24.0065 121.404 23.6738C121.208 23.3366 121.058 22.9355 120.953 22.4707C120.848 22.0059 120.796 21.4727 120.796 20.8711V19.1484C120.796 18.401 120.876 17.7607 121.035 17.2275C121.199 16.6898 121.429 16.25 121.726 15.9082C122.026 15.5664 122.382 15.3158 122.792 15.1562C123.202 14.9922 123.658 14.9102 124.159 14.9102C124.56 14.9102 124.932 14.9626 125.273 15.0674C125.62 15.1676 125.932 15.3249 126.21 15.5391C126.488 15.7533 126.725 16.029 126.921 16.3662C127.117 16.6989 127.267 17.0977 127.372 17.5625C127.477 18.0228 127.529 18.5514 127.529 19.1484ZM125.554 21.1309V18.8818C125.554 18.5218 125.533 18.2074 125.492 17.9385C125.456 17.6696 125.399 17.4417 125.321 17.2549C125.244 17.0635 125.148 16.9085 125.034 16.79C124.92 16.6715 124.79 16.585 124.645 16.5303C124.499 16.4756 124.337 16.4482 124.159 16.4482C123.936 16.4482 123.738 16.4915 123.564 16.5781C123.396 16.6647 123.252 16.8037 123.134 16.9951C123.015 17.182 122.924 17.4326 122.86 17.7471C122.801 18.057 122.771 18.4352 122.771 18.8818V21.1309C122.771 21.4909 122.79 21.8076 122.826 22.0811C122.867 22.3545 122.926 22.5892 123.004 22.7852C123.086 22.9766 123.182 23.1338 123.291 23.2568C123.405 23.3753 123.535 23.4619 123.681 23.5166C123.831 23.5713 123.995 23.5986 124.173 23.5986C124.392 23.5986 124.585 23.5553 124.754 23.4688C124.927 23.3776 125.073 23.2363 125.191 23.0449C125.314 22.849 125.406 22.5938 125.465 22.2793C125.524 21.9648 125.554 21.582 125.554 21.1309ZM135.678 23.4619V25H128.869V23.6875L132.089 20.2354C132.412 19.8753 132.668 19.5586 132.854 19.2852C133.041 19.0072 133.176 18.7588 133.258 18.54C133.344 18.3167 133.388 18.1048 133.388 17.9043C133.388 17.6035 133.338 17.346 133.237 17.1318C133.137 16.9131 132.989 16.7445 132.793 16.626C132.602 16.5075 132.365 16.4482 132.082 16.4482C131.781 16.4482 131.521 16.5212 131.303 16.667C131.089 16.8128 130.924 17.0156 130.811 17.2754C130.701 17.5352 130.646 17.8291 130.646 18.1572H128.671C128.671 17.5648 128.812 17.0225 129.095 16.5303C129.377 16.0335 129.776 15.6393 130.291 15.3477C130.806 15.0514 131.417 14.9033 132.123 14.9033C132.82 14.9033 133.408 15.0173 133.887 15.2451C134.37 15.4684 134.734 15.792 134.98 16.2158C135.231 16.6351 135.356 17.1364 135.356 17.7197C135.356 18.0479 135.304 18.3691 135.199 18.6836C135.094 18.9935 134.944 19.3034 134.748 19.6133C134.557 19.9186 134.324 20.2285 134.051 20.543C133.777 20.8574 133.474 21.1833 133.142 21.5205L131.412 23.4619H135.678ZM143.717 23.4619V25H136.908V23.6875L140.128 20.2354C140.451 19.8753 140.707 19.5586 140.894 19.2852C141.08 19.0072 141.215 18.7588 141.297 18.54C141.383 18.3167 141.427 18.1048 141.427 17.9043C141.427 17.6035 141.377 17.346 141.276 17.1318C141.176 16.9131 141.028 16.7445 140.832 16.626C140.641 16.5075 140.404 16.4482 140.121 16.4482C139.82 16.4482 139.561 16.5212 139.342 16.667C139.128 16.8128 138.964 17.0156 138.85 17.2754C138.74 17.5352 138.686 17.8291 138.686 18.1572H136.71C136.71 17.5648 136.851 17.0225 137.134 16.5303C137.416 16.0335 137.815 15.6393 138.33 15.3477C138.845 15.0514 139.456 14.9033 140.162 14.9033C140.859 14.9033 141.447 15.0173 141.926 15.2451C142.409 15.4684 142.773 15.792 143.02 16.2158C143.27 16.6351 143.396 17.1364 143.396 17.7197C143.396 18.0479 143.343 18.3691 143.238 18.6836C143.133 18.9935 142.983 19.3034 142.787 19.6133C142.596 19.9186 142.363 20.2285 142.09 20.543C141.816 20.8574 141.513 21.1833 141.181 21.5205L139.451 23.4619H143.717Z" fill="#252B4B"/>
<rect x="159" y="8" width="2" height="24" fill="#D9D9D9"/>
<path d="M182.492 23.4619V25H175.684V23.6875L178.903 20.2354C179.227 19.8753 179.482 19.5586 179.669 19.2852C179.856 19.0072 179.99 18.7588 180.072 18.54C180.159 18.3167 180.202 18.1048 180.202 17.9043C180.202 17.6035 180.152 17.346 180.052 17.1318C179.951 16.9131 179.803 16.7445 179.607 16.626C179.416 16.5075 179.179 16.4482 178.896 16.4482C178.596 16.4482 178.336 16.5212 178.117 16.667C177.903 16.8128 177.739 17.0156 177.625 17.2754C177.516 17.5352 177.461 17.8291 177.461 18.1572H175.485C175.485 17.5648 175.627 17.0225 175.909 16.5303C176.192 16.0335 176.59 15.6393 177.105 15.3477C177.62 15.0514 178.231 14.9033 178.938 14.9033C179.635 14.9033 180.223 15.0173 180.701 15.2451C181.184 15.4684 181.549 15.792 181.795 16.2158C182.046 16.6351 182.171 17.1364 182.171 17.7197C182.171 18.0479 182.118 18.3691 182.014 18.6836C181.909 18.9935 181.758 19.3034 181.562 19.6133C181.371 19.9186 181.139 20.2285 180.865 20.543C180.592 20.8574 180.289 21.1833 179.956 21.5205L178.227 23.4619H182.492ZM190.422 19.1484V20.8711C190.422 21.6185 190.342 22.2633 190.183 22.8057C190.023 23.3434 189.793 23.7855 189.492 24.1318C189.196 24.4736 188.843 24.7266 188.433 24.8906C188.022 25.0547 187.567 25.1367 187.065 25.1367C186.664 25.1367 186.291 25.0866 185.944 24.9863C185.598 24.8815 185.286 24.7197 185.008 24.501C184.734 24.2822 184.497 24.0065 184.297 23.6738C184.101 23.3366 183.951 22.9355 183.846 22.4707C183.741 22.0059 183.688 21.4727 183.688 20.8711V19.1484C183.688 18.401 183.768 17.7607 183.928 17.2275C184.092 16.6898 184.322 16.25 184.618 15.9082C184.919 15.5664 185.274 15.3158 185.685 15.1562C186.095 14.9922 186.55 14.9102 187.052 14.9102C187.453 14.9102 187.824 14.9626 188.166 15.0674C188.512 15.1676 188.825 15.3249 189.103 15.5391C189.381 15.7533 189.618 16.029 189.813 16.3662C190.009 16.6989 190.16 17.0977 190.265 17.5625C190.369 18.0228 190.422 18.5514 190.422 19.1484ZM188.446 21.1309V18.8818C188.446 18.5218 188.426 18.2074 188.385 17.9385C188.348 17.6696 188.291 17.4417 188.214 17.2549C188.136 17.0635 188.041 16.9085 187.927 16.79C187.813 16.6715 187.683 16.585 187.537 16.5303C187.391 16.4756 187.229 16.4482 187.052 16.4482C186.828 16.4482 186.63 16.4915 186.457 16.5781C186.288 16.6647 186.145 16.8037 186.026 16.9951C185.908 17.182 185.817 17.4326 185.753 17.7471C185.694 18.057 185.664 18.4352 185.664 18.8818V21.1309C185.664 21.4909 185.682 21.8076 185.719 22.0811C185.76 22.3545 185.819 22.5892 185.896 22.7852C185.979 22.9766 186.074 23.1338 186.184 23.2568C186.298 23.3753 186.427 23.4619 186.573 23.5166C186.724 23.5713 186.888 23.5986 187.065 23.5986C187.284 23.5986 187.478 23.5553 187.646 23.4688C187.82 23.3776 187.965 23.2363 188.084 23.0449C188.207 22.849 188.298 22.5938 188.357 22.2793C188.417 21.9648 188.446 21.582 188.446 21.1309ZM191.919 24.0498C191.919 23.7581 192.019 23.5143 192.22 23.3184C192.425 23.1224 192.696 23.0244 193.033 23.0244C193.37 23.0244 193.639 23.1224 193.84 23.3184C194.045 23.5143 194.147 23.7581 194.147 24.0498C194.147 24.3415 194.045 24.5853 193.84 24.7812C193.639 24.9772 193.37 25.0752 193.033 25.0752C192.696 25.0752 192.425 24.9772 192.22 24.7812C192.019 24.5853 191.919 24.3415 191.919 24.0498ZM191.919 18.4102C191.919 18.1185 192.019 17.8747 192.22 17.6787C192.425 17.4827 192.696 17.3848 193.033 17.3848C193.37 17.3848 193.639 17.4827 193.84 17.6787C194.045 17.8747 194.147 18.1185 194.147 18.4102C194.147 18.7018 194.045 18.9456 193.84 19.1416C193.639 19.3376 193.37 19.4355 193.033 19.4355C192.696 19.4355 192.425 19.3376 192.22 19.1416C192.019 18.9456 191.919 18.7018 191.919 18.4102ZM202.412 19.1484V20.8711C202.412 21.6185 202.332 22.2633 202.173 22.8057C202.013 23.3434 201.783 23.7855 201.482 24.1318C201.186 24.4736 200.833 24.7266 200.423 24.8906C200.013 25.0547 199.557 25.1367 199.056 25.1367C198.655 25.1367 198.281 25.0866 197.935 24.9863C197.588 24.8815 197.276 24.7197 196.998 24.501C196.725 24.2822 196.488 24.0065 196.287 23.6738C196.091 23.3366 195.941 22.9355 195.836 22.4707C195.731 22.0059 195.679 21.4727 195.679 20.8711V19.1484C195.679 18.401 195.758 17.7607 195.918 17.2275C196.082 16.6898 196.312 16.25 196.608 15.9082C196.909 15.5664 197.265 15.3158 197.675 15.1562C198.085 14.9922 198.541 14.9102 199.042 14.9102C199.443 14.9102 199.814 14.9626 200.156 15.0674C200.503 15.1676 200.815 15.3249 201.093 15.5391C201.371 15.7533 201.608 16.029 201.804 16.3662C202 16.6989 202.15 17.0977 202.255 17.5625C202.36 18.0228 202.412 18.5514 202.412 19.1484ZM200.437 21.1309V18.8818C200.437 18.5218 200.416 18.2074 200.375 17.9385C200.339 17.6696 200.282 17.4417 200.204 17.2549C200.127 17.0635 200.031 16.9085 199.917 16.79C199.803 16.6715 199.673 16.585 199.527 16.5303C199.382 16.4756 199.22 16.4482 199.042 16.4482C198.819 16.4482 198.62 16.4915 198.447 16.5781C198.279 16.6647 198.135 16.8037 198.017 16.9951C197.898 17.182 197.807 17.4326 197.743 17.7471C197.684 18.057 197.654 18.4352 197.654 18.8818V21.1309C197.654 21.4909 197.673 21.8076 197.709 22.0811C197.75 22.3545 197.809 22.5892 197.887 22.7852C197.969 22.9766 198.064 23.1338 198.174 23.2568C198.288 23.3753 198.418 23.4619 198.563 23.5166C198.714 23.5713 198.878 23.5986 199.056 23.5986C199.274 23.5986 199.468 23.5553 199.637 23.4688C199.81 23.3776 199.956 23.2363 200.074 23.0449C200.197 22.849 200.288 22.5938 200.348 22.2793C200.407 21.9648 200.437 21.582 200.437 21.1309ZM210.725 21.2812V22.8262H203.554L203.458 21.6299L207.607 15.0469H209.173L207.478 17.8838L205.413 21.2812H210.725ZM209.597 15.0469V25H207.628V15.0469H209.597Z" fill="#252B4B"/>
</svg>
