<svg width="318" height="40" viewBox="0 0 318 40" fill="none" xmlns="http://www.w3.org/2000/svg">
<rect width="318" height="40" rx="8" fill="white"/>
<path d="M23.3333 18V20.6667C23.3333 22.5523 23.3333 23.4951 23.919 24.0809C24.5048 24.6667 25.4476 24.6667 27.3333 24.6667H29.3333" stroke="#CCD1D7" stroke-width="2"/>
<path d="M23.3333 16.6667V16.6667C23.3333 17.2866 23.3333 17.5966 23.4014 17.851C23.5863 18.5411 24.1254 19.0802 24.8156 19.2652C25.0699 19.3333 25.3799 19.3333 25.9999 19.3333H29.3333" stroke="#CCD1D7" stroke-width="2"/>
<rect x="32" y="18" width="2.66667" height="2.66667" rx="1.33333" transform="rotate(90 32 18)" fill="#252B4B" stroke="#252B4B" stroke-width="2"/>
<rect x="32" y="23.3333" width="2.66667" height="2.66667" rx="1.33333" transform="rotate(90 32 23.3333)" fill="#252B4B" stroke="#252B4B" stroke-width="2"/>
<rect x="22" y="16.6667" width="2.66667" height="2.66667" rx="1.33333" transform="rotate(-90 22 16.6667)" fill="#252B4B" stroke="#252B4B" stroke-width="2"/>
<path d="M56 15L61 20L56 25" stroke="#252B4B" stroke-width="2" stroke-linecap="round"/>
<path d="M84.8486 25H82.7705L82.7842 23.9268H84.8486C85.5596 23.9268 86.152 23.7786 86.626 23.4824C87.0999 23.1816 87.4554 22.7624 87.6924 22.2246C87.9339 21.6823 88.0547 21.0488 88.0547 20.3242V19.7158C88.0547 19.1462 87.9863 18.6403 87.8496 18.1982C87.7129 17.7516 87.5124 17.3757 87.248 17.0703C86.9837 16.7604 86.6602 16.5257 86.2773 16.3662C85.8991 16.2067 85.4639 16.127 84.9717 16.127H82.7295V15.0469H84.9717C85.6234 15.0469 86.2181 15.1562 86.7559 15.375C87.2936 15.5892 87.7562 15.9014 88.1436 16.3115C88.5355 16.7171 88.8363 17.2093 89.0459 17.7881C89.2555 18.3623 89.3604 19.0094 89.3604 19.7295V20.3242C89.3604 21.0443 89.2555 21.6937 89.0459 22.2725C88.8363 22.8467 88.5332 23.3366 88.1367 23.7422C87.7448 24.1478 87.2708 24.46 86.7148 24.6787C86.1634 24.8929 85.5413 25 84.8486 25ZM83.4746 15.0469V25H82.1553V15.0469H83.4746ZM95.5127 23.7354V19.9277C95.5127 19.6361 95.4535 19.3831 95.335 19.1689C95.221 18.9502 95.0479 18.7816 94.8154 18.6631C94.583 18.5446 94.2959 18.4854 93.9541 18.4854C93.6351 18.4854 93.3548 18.54 93.1133 18.6494C92.8763 18.7588 92.6895 18.9023 92.5527 19.0801C92.4206 19.2578 92.3545 19.4492 92.3545 19.6543H91.0898C91.0898 19.39 91.1582 19.1279 91.2949 18.8682C91.4316 18.6084 91.6276 18.3737 91.8828 18.1641C92.1426 17.9499 92.4525 17.7812 92.8125 17.6582C93.1771 17.5306 93.5827 17.4668 94.0293 17.4668C94.5671 17.4668 95.041 17.5579 95.4512 17.7402C95.8659 17.9225 96.1895 18.1982 96.4219 18.5674C96.6589 18.932 96.7773 19.39 96.7773 19.9414V23.3867C96.7773 23.6328 96.7979 23.8949 96.8389 24.1729C96.8844 24.4508 96.9505 24.6901 97.0371 24.8906V25H95.7178C95.654 24.8542 95.6038 24.6605 95.5674 24.4189C95.5309 24.1729 95.5127 23.945 95.5127 23.7354ZM95.7314 20.5156L95.7451 21.4043H94.4668C94.1068 21.4043 93.7855 21.4339 93.5029 21.4932C93.2204 21.5479 92.9834 21.6322 92.792 21.7461C92.6006 21.86 92.4548 22.0036 92.3545 22.1768C92.2542 22.3454 92.2041 22.5436 92.2041 22.7715C92.2041 23.0039 92.2565 23.2158 92.3613 23.4072C92.4661 23.5986 92.6234 23.7513 92.833 23.8652C93.0472 23.9746 93.3092 24.0293 93.6191 24.0293C94.0065 24.0293 94.3483 23.9473 94.6445 23.7832C94.9408 23.6191 95.1755 23.4186 95.3486 23.1816C95.5264 22.9447 95.6221 22.7145 95.6357 22.4912L96.1758 23.0996C96.1439 23.291 96.0573 23.5029 95.916 23.7354C95.7747 23.9678 95.5856 24.1911 95.3486 24.4053C95.1162 24.6149 94.8382 24.7904 94.5146 24.9316C94.1956 25.0684 93.8356 25.1367 93.4346 25.1367C92.9333 25.1367 92.4935 25.0387 92.1152 24.8428C91.7415 24.6468 91.4499 24.3848 91.2402 24.0566C91.0352 23.724 90.9326 23.3525 90.9326 22.9424C90.9326 22.5459 91.0101 22.1973 91.165 21.8965C91.32 21.5911 91.5433 21.3382 91.835 21.1377C92.1266 20.9326 92.4775 20.7777 92.8877 20.6729C93.2979 20.568 93.7559 20.5156 94.2617 20.5156H95.7314ZM103.073 23.0381C103.073 22.8558 103.032 22.6872 102.95 22.5322C102.873 22.3727 102.711 22.2292 102.465 22.1016C102.223 21.9694 101.859 21.8555 101.371 21.7598C100.961 21.6732 100.59 21.5706 100.257 21.4521C99.9287 21.3337 99.6484 21.1901 99.416 21.0215C99.1882 20.8529 99.0127 20.6546 98.8896 20.4268C98.7666 20.1989 98.7051 19.9323 98.7051 19.627C98.7051 19.3353 98.7689 19.0596 98.8965 18.7998C99.0286 18.54 99.2132 18.3099 99.4502 18.1094C99.6917 17.9089 99.9811 17.7516 100.318 17.6377C100.656 17.5238 101.032 17.4668 101.446 17.4668C102.039 17.4668 102.545 17.5716 102.964 17.7812C103.383 17.9909 103.704 18.2712 103.928 18.6221C104.151 18.9684 104.263 19.3535 104.263 19.7773H102.998C102.998 19.5723 102.937 19.374 102.813 19.1826C102.695 18.9867 102.52 18.8249 102.287 18.6973C102.059 18.5697 101.779 18.5059 101.446 18.5059C101.095 18.5059 100.811 18.5605 100.592 18.6699C100.378 18.7747 100.22 18.9092 100.12 19.0732C100.024 19.2373 99.9766 19.4105 99.9766 19.5928C99.9766 19.7295 99.9993 19.8525 100.045 19.9619C100.095 20.0667 100.182 20.1647 100.305 20.2559C100.428 20.3424 100.601 20.4245 100.824 20.502C101.048 20.5794 101.332 20.6569 101.679 20.7344C102.285 20.8711 102.784 21.0352 103.176 21.2266C103.568 21.418 103.859 21.6527 104.051 21.9307C104.242 22.2087 104.338 22.5459 104.338 22.9424C104.338 23.266 104.27 23.5622 104.133 23.8311C104.001 24.0999 103.807 24.3324 103.552 24.5283C103.301 24.7197 103 24.8701 102.649 24.9795C102.303 25.0843 101.913 25.1367 101.48 25.1367C100.829 25.1367 100.277 25.0205 99.8262 24.7881C99.375 24.5557 99.0332 24.2549 98.8008 23.8857C98.5684 23.5166 98.4521 23.127 98.4521 22.7168H99.7236C99.7419 23.0632 99.8421 23.3389 100.024 23.5439C100.207 23.7445 100.43 23.888 100.694 23.9746C100.959 24.0566 101.221 24.0977 101.48 24.0977C101.827 24.0977 102.116 24.0521 102.349 23.9609C102.586 23.8698 102.766 23.7445 102.889 23.585C103.012 23.4255 103.073 23.2432 103.073 23.0381ZM107.264 14.5V25H105.999V14.5H107.264ZM106.963 21.0215L106.437 21.001C106.441 20.4951 106.516 20.028 106.662 19.5996C106.808 19.1667 107.013 18.7907 107.277 18.4717C107.542 18.1527 107.856 17.9066 108.221 17.7334C108.59 17.5557 108.998 17.4668 109.444 17.4668C109.809 17.4668 110.137 17.5169 110.429 17.6172C110.72 17.7129 110.969 17.8678 111.174 18.082C111.383 18.2962 111.543 18.5742 111.652 18.916C111.762 19.2533 111.816 19.6657 111.816 20.1533V25H110.545V20.1396C110.545 19.7523 110.488 19.4424 110.374 19.21C110.26 18.973 110.094 18.8021 109.875 18.6973C109.656 18.5879 109.387 18.5332 109.068 18.5332C108.754 18.5332 108.467 18.5993 108.207 18.7314C107.952 18.8636 107.731 19.0459 107.544 19.2783C107.362 19.5107 107.218 19.7773 107.113 20.0781C107.013 20.3743 106.963 20.6888 106.963 21.0215ZM113.703 14.5H114.975V23.5645L114.865 25H113.703V14.5ZM119.972 21.2402V21.3838C119.972 21.9215 119.908 22.4206 119.78 22.8809C119.653 23.3366 119.466 23.7331 119.22 24.0703C118.974 24.4076 118.673 24.6696 118.317 24.8564C117.962 25.0433 117.554 25.1367 117.094 25.1367C116.624 25.1367 116.212 25.057 115.856 24.8975C115.506 24.7334 115.209 24.4987 114.968 24.1934C114.726 23.888 114.533 23.5189 114.387 23.0859C114.245 22.653 114.147 22.1654 114.093 21.623V20.9941C114.147 20.4473 114.245 19.9574 114.387 19.5244C114.533 19.0915 114.726 18.7223 114.968 18.417C115.209 18.1071 115.506 17.8724 115.856 17.7129C116.207 17.5488 116.615 17.4668 117.08 17.4668C117.545 17.4668 117.957 17.5579 118.317 17.7402C118.677 17.918 118.978 18.1732 119.22 18.5059C119.466 18.8385 119.653 19.2373 119.78 19.7021C119.908 20.1624 119.972 20.6751 119.972 21.2402ZM118.7 21.3838V21.2402C118.7 20.8711 118.666 20.5247 118.598 20.2012C118.529 19.873 118.42 19.5859 118.27 19.3398C118.119 19.0892 117.921 18.8932 117.675 18.752C117.429 18.6061 117.126 18.5332 116.766 18.5332C116.447 18.5332 116.169 18.5879 115.932 18.6973C115.699 18.8066 115.501 18.9548 115.337 19.1416C115.173 19.3239 115.038 19.5335 114.934 19.7705C114.833 20.0029 114.758 20.2445 114.708 20.4951V22.1426C114.781 22.4616 114.899 22.7692 115.063 23.0654C115.232 23.3571 115.455 23.5964 115.733 23.7832C116.016 23.9701 116.365 24.0635 116.779 24.0635C117.121 24.0635 117.413 23.9951 117.654 23.8584C117.9 23.7171 118.099 23.5234 118.249 23.2773C118.404 23.0312 118.518 22.7464 118.591 22.4229C118.664 22.0993 118.7 21.7529 118.7 21.3838ZM121.236 21.3838V21.2266C121.236 20.6934 121.314 20.1989 121.469 19.7432C121.624 19.2829 121.847 18.8841 122.139 18.5469C122.43 18.2051 122.784 17.9408 123.198 17.7539C123.613 17.5625 124.078 17.4668 124.593 17.4668C125.112 17.4668 125.579 17.5625 125.994 17.7539C126.413 17.9408 126.769 18.2051 127.061 18.5469C127.357 18.8841 127.582 19.2829 127.737 19.7432C127.892 20.1989 127.97 20.6934 127.97 21.2266V21.3838C127.97 21.917 127.892 22.4115 127.737 22.8672C127.582 23.3229 127.357 23.7217 127.061 24.0635C126.769 24.4007 126.416 24.665 126.001 24.8564C125.591 25.0433 125.126 25.1367 124.606 25.1367C124.087 25.1367 123.62 25.0433 123.205 24.8564C122.79 24.665 122.435 24.4007 122.139 24.0635C121.847 23.7217 121.624 23.3229 121.469 22.8672C121.314 22.4115 121.236 21.917 121.236 21.3838ZM122.501 21.2266V21.3838C122.501 21.7529 122.544 22.1016 122.631 22.4297C122.717 22.7533 122.847 23.0404 123.021 23.291C123.198 23.5417 123.419 23.7399 123.684 23.8857C123.948 24.027 124.256 24.0977 124.606 24.0977C124.953 24.0977 125.256 24.027 125.516 23.8857C125.78 23.7399 125.999 23.5417 126.172 23.291C126.345 23.0404 126.475 22.7533 126.562 22.4297C126.653 22.1016 126.698 21.7529 126.698 21.3838V21.2266C126.698 20.862 126.653 20.5179 126.562 20.1943C126.475 19.8662 126.343 19.5768 126.165 19.3262C125.992 19.071 125.773 18.8704 125.509 18.7246C125.249 18.5788 124.944 18.5059 124.593 18.5059C124.246 18.5059 123.941 18.5788 123.677 18.7246C123.417 18.8704 123.198 19.071 123.021 19.3262C122.847 19.5768 122.717 19.8662 122.631 20.1943C122.544 20.5179 122.501 20.862 122.501 21.2266ZM133.917 23.7354V19.9277C133.917 19.6361 133.858 19.3831 133.739 19.1689C133.625 18.9502 133.452 18.7816 133.22 18.6631C132.987 18.5446 132.7 18.4854 132.358 18.4854C132.039 18.4854 131.759 18.54 131.518 18.6494C131.281 18.7588 131.094 18.9023 130.957 19.0801C130.825 19.2578 130.759 19.4492 130.759 19.6543H129.494C129.494 19.39 129.562 19.1279 129.699 18.8682C129.836 18.6084 130.032 18.3737 130.287 18.1641C130.547 17.9499 130.857 17.7812 131.217 17.6582C131.581 17.5306 131.987 17.4668 132.434 17.4668C132.971 17.4668 133.445 17.5579 133.855 17.7402C134.27 17.9225 134.594 18.1982 134.826 18.5674C135.063 18.932 135.182 19.39 135.182 19.9414V23.3867C135.182 23.6328 135.202 23.8949 135.243 24.1729C135.289 24.4508 135.355 24.6901 135.441 24.8906V25H134.122C134.058 24.8542 134.008 24.6605 133.972 24.4189C133.935 24.1729 133.917 23.945 133.917 23.7354ZM134.136 20.5156L134.149 21.4043H132.871C132.511 21.4043 132.19 21.4339 131.907 21.4932C131.625 21.5479 131.388 21.6322 131.196 21.7461C131.005 21.86 130.859 22.0036 130.759 22.1768C130.659 22.3454 130.608 22.5436 130.608 22.7715C130.608 23.0039 130.661 23.2158 130.766 23.4072C130.87 23.5986 131.028 23.7513 131.237 23.8652C131.451 23.9746 131.714 24.0293 132.023 24.0293C132.411 24.0293 132.753 23.9473 133.049 23.7832C133.345 23.6191 133.58 23.4186 133.753 23.1816C133.931 22.9447 134.026 22.7145 134.04 22.4912L134.58 23.0996C134.548 23.291 134.462 23.5029 134.32 23.7354C134.179 23.9678 133.99 24.1911 133.753 24.4053C133.521 24.6149 133.243 24.7904 132.919 24.9316C132.6 25.0684 132.24 25.1367 131.839 25.1367C131.338 25.1367 130.898 25.0387 130.52 24.8428C130.146 24.6468 129.854 24.3848 129.645 24.0566C129.439 23.724 129.337 23.3525 129.337 22.9424C129.337 22.5459 129.414 22.1973 129.569 21.8965C129.724 21.5911 129.948 21.3382 130.239 21.1377C130.531 20.9326 130.882 20.7777 131.292 20.6729C131.702 20.568 132.16 20.5156 132.666 20.5156H134.136ZM138.436 18.7656V25H137.171V17.6035H138.401L138.436 18.7656ZM140.746 17.5625L140.739 18.7383C140.634 18.7155 140.534 18.7018 140.438 18.6973C140.347 18.6882 140.243 18.6836 140.124 18.6836C139.832 18.6836 139.575 18.7292 139.352 18.8203C139.128 18.9115 138.939 19.0391 138.784 19.2031C138.629 19.3672 138.506 19.5632 138.415 19.791C138.328 20.0143 138.271 20.2604 138.244 20.5293L137.889 20.7344C137.889 20.2878 137.932 19.8685 138.019 19.4766C138.11 19.0846 138.249 18.7383 138.436 18.4375C138.622 18.1322 138.859 17.8952 139.146 17.7266C139.438 17.5534 139.785 17.4668 140.186 17.4668C140.277 17.4668 140.382 17.4782 140.5 17.501C140.618 17.5192 140.701 17.5397 140.746 17.5625ZM146.44 23.5645V14.5H147.712V25H146.55L146.44 23.5645ZM141.464 21.3838V21.2402C141.464 20.6751 141.532 20.1624 141.669 19.7021C141.81 19.2373 142.008 18.8385 142.264 18.5059C142.523 18.1732 142.831 17.918 143.187 17.7402C143.547 17.5579 143.948 17.4668 144.39 17.4668C144.854 17.4668 145.26 17.5488 145.606 17.7129C145.957 17.8724 146.254 18.1071 146.495 18.417C146.741 18.7223 146.935 19.0915 147.076 19.5244C147.217 19.9574 147.315 20.4473 147.37 20.9941V21.623C147.32 22.1654 147.222 22.653 147.076 23.0859C146.935 23.5189 146.741 23.888 146.495 24.1934C146.254 24.4987 145.957 24.7334 145.606 24.8975C145.256 25.057 144.845 25.1367 144.376 25.1367C143.943 25.1367 143.547 25.0433 143.187 24.8564C142.831 24.6696 142.523 24.4076 142.264 24.0703C142.008 23.7331 141.81 23.3366 141.669 22.8809C141.532 22.4206 141.464 21.9215 141.464 21.3838ZM142.735 21.2402V21.3838C142.735 21.7529 142.772 22.0993 142.845 22.4229C142.922 22.7464 143.041 23.0312 143.2 23.2773C143.36 23.5234 143.562 23.7171 143.809 23.8584C144.055 23.9951 144.349 24.0635 144.69 24.0635C145.11 24.0635 145.454 23.9746 145.723 23.7969C145.996 23.6191 146.215 23.3844 146.379 23.0928C146.543 22.8011 146.671 22.4844 146.762 22.1426V20.4951C146.707 20.2445 146.627 20.0029 146.522 19.7705C146.422 19.5335 146.29 19.3239 146.126 19.1416C145.966 18.9548 145.768 18.8066 145.531 18.6973C145.299 18.5879 145.023 18.5332 144.704 18.5332C144.358 18.5332 144.059 18.6061 143.809 18.752C143.562 18.8932 143.36 19.0892 143.2 19.3398C143.041 19.5859 142.922 19.873 142.845 20.2012C142.772 20.5247 142.735 20.8711 142.735 21.2402Z" fill="#252B4B"/>
<path d="M169 15L174 20L169 25" stroke="#252B4B" stroke-width="2" stroke-linecap="round"/>
<path d="M198.765 21.4521H196.229V19.8525H198.765C199.157 19.8525 199.476 19.7887 199.722 19.6611C199.968 19.529 200.148 19.3467 200.262 19.1143C200.376 18.8818 200.433 18.6198 200.433 18.3281C200.433 18.0319 200.376 17.7562 200.262 17.501C200.148 17.2458 199.968 17.0407 199.722 16.8857C199.476 16.7308 199.157 16.6533 198.765 16.6533H196.939V25H194.889V15.0469H198.765C199.544 15.0469 200.212 15.1882 200.768 15.4707C201.328 15.7487 201.757 16.1338 202.053 16.626C202.349 17.1182 202.497 17.681 202.497 18.3145C202.497 18.957 202.349 19.513 202.053 19.9824C201.757 20.4518 201.328 20.8141 200.768 21.0693C200.212 21.3245 199.544 21.4521 198.765 21.4521ZM205.758 19.2168V25H203.789V17.6035H205.642L205.758 19.2168ZM207.986 17.5557L207.952 19.3809C207.856 19.3672 207.74 19.3558 207.604 19.3467C207.471 19.333 207.351 19.3262 207.241 19.3262C206.963 19.3262 206.722 19.3626 206.517 19.4355C206.316 19.5039 206.147 19.6064 206.011 19.7432C205.879 19.8799 205.778 20.0462 205.71 20.2422C205.646 20.4382 205.61 20.6615 205.601 20.9121L205.204 20.7891C205.204 20.3105 205.252 19.8708 205.348 19.4697C205.443 19.0641 205.582 18.7109 205.765 18.4102C205.951 18.1094 206.179 17.877 206.448 17.7129C206.717 17.5488 207.025 17.4668 207.371 17.4668C207.48 17.4668 207.592 17.4759 207.706 17.4941C207.82 17.5078 207.913 17.5283 207.986 17.5557ZM208.396 21.377V21.2334C208.396 20.6911 208.474 20.1921 208.629 19.7363C208.784 19.276 209.009 18.8773 209.306 18.54C209.602 18.2028 209.966 17.9408 210.399 17.7539C210.832 17.5625 211.329 17.4668 211.89 17.4668C212.45 17.4668 212.949 17.5625 213.387 17.7539C213.824 17.9408 214.191 18.2028 214.487 18.54C214.788 18.8773 215.016 19.276 215.171 19.7363C215.326 20.1921 215.403 20.6911 215.403 21.2334V21.377C215.403 21.9147 215.326 22.4137 215.171 22.874C215.016 23.3298 214.788 23.7285 214.487 24.0703C214.191 24.4076 213.826 24.6696 213.394 24.8564C212.961 25.0433 212.464 25.1367 211.903 25.1367C211.343 25.1367 210.844 25.0433 210.406 24.8564C209.973 24.6696 209.606 24.4076 209.306 24.0703C209.009 23.7285 208.784 23.3298 208.629 22.874C208.474 22.4137 208.396 21.9147 208.396 21.377ZM210.365 21.2334V21.377C210.365 21.6868 210.393 21.9762 210.447 22.2451C210.502 22.514 210.589 22.751 210.707 22.9561C210.83 23.1566 210.99 23.3138 211.186 23.4277C211.382 23.5417 211.621 23.5986 211.903 23.5986C212.177 23.5986 212.411 23.5417 212.607 23.4277C212.803 23.3138 212.961 23.1566 213.079 22.9561C213.198 22.751 213.284 22.514 213.339 22.2451C213.398 21.9762 213.428 21.6868 213.428 21.377V21.2334C213.428 20.9326 213.398 20.6501 213.339 20.3857C213.284 20.1169 213.195 19.8799 213.072 19.6748C212.954 19.4652 212.797 19.3011 212.601 19.1826C212.405 19.0641 212.168 19.0049 211.89 19.0049C211.612 19.0049 211.375 19.0641 211.179 19.1826C210.987 19.3011 210.83 19.4652 210.707 19.6748C210.589 19.8799 210.502 20.1169 210.447 20.3857C210.393 20.6501 210.365 20.9326 210.365 21.2334ZM216.723 17.6035H218.698V25.4443C218.698 25.9912 218.598 26.4538 218.397 26.832C218.197 27.2103 217.908 27.4974 217.529 27.6934C217.151 27.8893 216.693 27.9873 216.155 27.9873C215.987 27.9873 215.823 27.9782 215.663 27.96C215.499 27.9417 215.33 27.9121 215.157 27.8711L215.164 26.3604C215.273 26.3786 215.381 26.3923 215.485 26.4014C215.586 26.415 215.688 26.4219 215.793 26.4219C215.998 26.4219 216.169 26.3877 216.306 26.3193C216.442 26.251 216.545 26.1439 216.613 25.998C216.686 25.8568 216.723 25.6722 216.723 25.4443V17.6035ZM216.565 15.6758C216.565 15.3887 216.666 15.1517 216.866 14.9648C217.071 14.778 217.34 14.6846 217.673 14.6846C218.01 14.6846 218.279 14.778 218.479 14.9648C218.68 15.1517 218.78 15.3887 218.78 15.6758C218.78 15.9629 218.68 16.1999 218.479 16.3867C218.279 16.5736 218.01 16.667 217.673 16.667C217.34 16.667 217.071 16.5736 216.866 16.3867C216.666 16.1999 216.565 15.9629 216.565 15.6758ZM223.668 25.1367C223.094 25.1367 222.579 25.0456 222.123 24.8633C221.667 24.6764 221.28 24.4189 220.961 24.0908C220.646 23.7627 220.405 23.3822 220.236 22.9492C220.068 22.5117 219.983 22.0469 219.983 21.5547V21.2812C219.983 20.7207 220.063 20.208 220.223 19.7432C220.382 19.2783 220.61 18.875 220.906 18.5332C221.207 18.1914 221.572 17.9294 222 17.7471C222.428 17.5602 222.911 17.4668 223.449 17.4668C223.973 17.4668 224.438 17.5534 224.844 17.7266C225.249 17.8997 225.589 18.1458 225.862 18.4648C226.14 18.7839 226.35 19.1667 226.491 19.6133C226.632 20.0553 226.703 20.5475 226.703 21.0898V21.9102H220.824V20.5977H224.769V20.4473C224.769 20.1738 224.718 19.93 224.618 19.7158C224.522 19.4971 224.377 19.3239 224.181 19.1963C223.985 19.0687 223.734 19.0049 223.429 19.0049C223.169 19.0049 222.946 19.0618 222.759 19.1758C222.572 19.2897 222.419 19.4492 222.301 19.6543C222.187 19.8594 222.1 20.1009 222.041 20.3789C221.986 20.6523 221.959 20.9531 221.959 21.2812V21.5547C221.959 21.8509 222 22.1243 222.082 22.375C222.169 22.6257 222.289 22.8421 222.444 23.0244C222.604 23.2067 222.795 23.348 223.019 23.4482C223.246 23.5485 223.504 23.5986 223.791 23.5986C224.146 23.5986 224.477 23.5303 224.782 23.3936C225.092 23.2523 225.359 23.0404 225.582 22.7578L226.539 23.7969C226.384 24.0202 226.172 24.2344 225.903 24.4395C225.639 24.6445 225.32 24.8132 224.946 24.9453C224.573 25.0729 224.146 25.1367 223.668 25.1367ZM230.88 23.5986C231.121 23.5986 231.336 23.5531 231.522 23.4619C231.709 23.3662 231.855 23.234 231.96 23.0654C232.069 22.8923 232.126 22.6895 232.131 22.457H233.983C233.979 22.9766 233.84 23.4391 233.566 23.8447C233.293 24.2458 232.926 24.5625 232.466 24.7949C232.006 25.0228 231.491 25.1367 230.921 25.1367C230.347 25.1367 229.845 25.041 229.417 24.8496C228.993 24.6582 228.64 24.3939 228.357 24.0566C228.075 23.7148 227.863 23.3184 227.722 22.8672C227.58 22.4115 227.51 21.9238 227.51 21.4043V21.2061C227.51 20.682 227.58 20.1943 227.722 19.7432C227.863 19.2874 228.075 18.891 228.357 18.5537C228.64 18.2119 228.993 17.9453 229.417 17.7539C229.841 17.5625 230.338 17.4668 230.907 17.4668C231.513 17.4668 232.044 17.583 232.5 17.8154C232.96 18.0479 233.32 18.3805 233.58 18.8135C233.844 19.2419 233.979 19.75 233.983 20.3379H232.131C232.126 20.0918 232.074 19.8685 231.974 19.668C231.878 19.4674 231.737 19.3079 231.55 19.1895C231.368 19.0664 231.142 19.0049 230.873 19.0049C230.586 19.0049 230.351 19.0664 230.169 19.1895C229.987 19.3079 229.845 19.472 229.745 19.6816C229.645 19.8867 229.574 20.1214 229.533 20.3857C229.497 20.6455 229.479 20.9189 229.479 21.2061V21.4043C229.479 21.6914 229.497 21.9671 229.533 22.2314C229.57 22.4958 229.638 22.7305 229.738 22.9355C229.843 23.1406 229.987 23.3024 230.169 23.4209C230.351 23.5394 230.588 23.5986 230.88 23.5986ZM238.748 17.6035V18.998H234.441V17.6035H238.748ZM235.508 15.7783H237.477V22.7715C237.477 22.9857 237.504 23.1497 237.559 23.2637C237.618 23.3776 237.704 23.4574 237.818 23.5029C237.932 23.5439 238.076 23.5645 238.249 23.5645C238.372 23.5645 238.481 23.5599 238.577 23.5508C238.677 23.5371 238.762 23.5234 238.83 23.5098L238.837 24.959C238.668 25.0137 238.486 25.057 238.29 25.0889C238.094 25.1208 237.878 25.1367 237.641 25.1367C237.208 25.1367 236.829 25.0661 236.506 24.9248C236.187 24.779 235.941 24.5465 235.768 24.2275C235.594 23.9085 235.508 23.4893 235.508 22.9697V15.7783ZM247.525 16.749L244.818 25H242.638L246.336 15.0469H247.724L247.525 16.749ZM249.774 25L247.061 16.749L246.842 15.0469H248.243L251.962 25H249.774ZM249.651 21.2949V22.9014H244.395V21.2949H249.651ZM254.471 19.1826V25H252.502V17.6035H254.348L254.471 19.1826ZM254.184 21.042H253.65C253.65 20.4951 253.721 20.0029 253.862 19.5654C254.004 19.1234 254.202 18.7474 254.457 18.4375C254.712 18.123 255.015 17.8838 255.366 17.7197C255.722 17.5511 256.118 17.4668 256.556 17.4668C256.902 17.4668 257.219 17.5169 257.506 17.6172C257.793 17.7174 258.039 17.877 258.244 18.0957C258.454 18.3145 258.613 18.6038 258.723 18.9639C258.837 19.3239 258.894 19.7637 258.894 20.2832V25H256.911V20.2764C256.911 19.9482 256.866 19.693 256.774 19.5107C256.683 19.3285 256.549 19.2008 256.371 19.1279C256.198 19.0505 255.984 19.0117 255.729 19.0117C255.464 19.0117 255.234 19.0641 255.038 19.1689C254.847 19.2738 254.687 19.4196 254.56 19.6064C254.437 19.7887 254.343 20.0029 254.279 20.249C254.215 20.4951 254.184 20.7594 254.184 21.042ZM260.076 21.377V21.2334C260.076 20.6911 260.154 20.1921 260.309 19.7363C260.464 19.276 260.689 18.8773 260.985 18.54C261.282 18.2028 261.646 17.9408 262.079 17.7539C262.512 17.5625 263.009 17.4668 263.569 17.4668C264.13 17.4668 264.629 17.5625 265.066 17.7539C265.504 17.9408 265.871 18.2028 266.167 18.54C266.468 18.8773 266.696 19.276 266.851 19.7363C267.006 20.1921 267.083 20.6911 267.083 21.2334V21.377C267.083 21.9147 267.006 22.4137 266.851 22.874C266.696 23.3298 266.468 23.7285 266.167 24.0703C265.871 24.4076 265.506 24.6696 265.073 24.8564C264.64 25.0433 264.144 25.1367 263.583 25.1367C263.022 25.1367 262.523 25.0433 262.086 24.8564C261.653 24.6696 261.286 24.4076 260.985 24.0703C260.689 23.7285 260.464 23.3298 260.309 22.874C260.154 22.4137 260.076 21.9147 260.076 21.377ZM262.045 21.2334V21.377C262.045 21.6868 262.072 21.9762 262.127 22.2451C262.182 22.514 262.268 22.751 262.387 22.9561C262.51 23.1566 262.669 23.3138 262.865 23.4277C263.061 23.5417 263.3 23.5986 263.583 23.5986C263.856 23.5986 264.091 23.5417 264.287 23.4277C264.483 23.3138 264.64 23.1566 264.759 22.9561C264.877 22.751 264.964 22.514 265.019 22.2451C265.078 21.9762 265.107 21.6868 265.107 21.377V21.2334C265.107 20.9326 265.078 20.6501 265.019 20.3857C264.964 20.1169 264.875 19.8799 264.752 19.6748C264.633 19.4652 264.476 19.3011 264.28 19.1826C264.084 19.0641 263.847 19.0049 263.569 19.0049C263.291 19.0049 263.054 19.0641 262.858 19.1826C262.667 19.3011 262.51 19.4652 262.387 19.6748C262.268 19.8799 262.182 20.1169 262.127 20.3857C262.072 20.6501 262.045 20.9326 262.045 21.2334ZM270.262 19.1348V25H268.286V17.6035H270.139L270.262 19.1348ZM269.988 21.042H269.441C269.441 20.527 269.503 20.0531 269.626 19.6201C269.754 19.1826 269.938 18.8044 270.18 18.4854C270.426 18.1618 270.729 17.9111 271.089 17.7334C271.449 17.5557 271.866 17.4668 272.34 17.4668C272.668 17.4668 272.969 17.5169 273.242 17.6172C273.516 17.7129 273.75 17.8656 273.946 18.0752C274.147 18.2803 274.302 18.5492 274.411 18.8818C274.521 19.21 274.575 19.6042 274.575 20.0645V25H272.606V20.2832C272.606 19.946 272.561 19.6862 272.47 19.5039C272.379 19.3216 272.249 19.194 272.08 19.1211C271.916 19.0482 271.718 19.0117 271.485 19.0117C271.23 19.0117 271.007 19.0641 270.815 19.1689C270.629 19.2738 270.474 19.4196 270.351 19.6064C270.228 19.7887 270.136 20.0029 270.077 20.249C270.018 20.4951 269.988 20.7594 269.988 21.042ZM274.391 20.8164L273.687 20.9053C273.687 20.4222 273.746 19.9733 273.864 19.5586C273.987 19.1439 274.167 18.7793 274.404 18.4648C274.646 18.1504 274.944 17.9066 275.3 17.7334C275.655 17.5557 276.065 17.4668 276.53 17.4668C276.886 17.4668 277.209 17.5192 277.501 17.624C277.793 17.7243 278.041 17.8861 278.246 18.1094C278.456 18.3281 278.615 18.6152 278.725 18.9707C278.839 19.3262 278.896 19.7614 278.896 20.2764V25H276.92V20.2764C276.92 19.9346 276.874 19.6748 276.783 19.4971C276.697 19.3148 276.569 19.1895 276.4 19.1211C276.236 19.0482 276.04 19.0117 275.812 19.0117C275.576 19.0117 275.368 19.0596 275.19 19.1553C275.013 19.2464 274.865 19.374 274.746 19.5381C274.628 19.7021 274.539 19.8936 274.479 20.1123C274.42 20.3265 274.391 20.5612 274.391 20.8164ZM284.412 23.332V20.0371C284.412 19.8001 284.373 19.5973 284.296 19.4287C284.218 19.2555 284.098 19.1211 283.934 19.0254C283.774 18.9297 283.567 18.8818 283.312 18.8818C283.093 18.8818 282.904 18.9206 282.744 18.998C282.585 19.071 282.462 19.1781 282.375 19.3193C282.288 19.4561 282.245 19.6178 282.245 19.8047H280.276C280.276 19.4902 280.349 19.1917 280.495 18.9092C280.641 18.6266 280.853 18.3783 281.131 18.1641C281.409 17.9453 281.739 17.7744 282.122 17.6514C282.509 17.5283 282.942 17.4668 283.421 17.4668C283.995 17.4668 284.506 17.5625 284.952 17.7539C285.399 17.9453 285.75 18.2324 286.005 18.6152C286.265 18.998 286.395 19.4766 286.395 20.0508V23.2158C286.395 23.6214 286.42 23.9541 286.47 24.2139C286.52 24.4691 286.593 24.6924 286.688 24.8838V25H284.699C284.604 24.7995 284.531 24.5488 284.48 24.248C284.435 23.9427 284.412 23.6374 284.412 23.332ZM284.672 20.4951L284.686 21.6094H283.585C283.325 21.6094 283.1 21.639 282.908 21.6982C282.717 21.7575 282.56 21.8418 282.437 21.9512C282.313 22.056 282.222 22.179 282.163 22.3203C282.108 22.4616 282.081 22.6165 282.081 22.7852C282.081 22.9538 282.12 23.1064 282.197 23.2432C282.275 23.3753 282.386 23.4801 282.532 23.5576C282.678 23.6305 282.849 23.667 283.045 23.667C283.341 23.667 283.599 23.6077 283.817 23.4893C284.036 23.3708 284.205 23.2249 284.323 23.0518C284.446 22.8786 284.51 22.7145 284.515 22.5596L285.034 23.3936C284.961 23.5804 284.861 23.7741 284.733 23.9746C284.61 24.1751 284.453 24.3643 284.262 24.542C284.07 24.7152 283.84 24.8587 283.571 24.9727C283.302 25.082 282.983 25.1367 282.614 25.1367C282.145 25.1367 281.719 25.0433 281.336 24.8564C280.958 24.665 280.657 24.403 280.434 24.0703C280.215 23.7331 280.105 23.3503 280.105 22.9219C280.105 22.5345 280.178 22.1904 280.324 21.8896C280.47 21.5889 280.684 21.3359 280.967 21.1309C281.254 20.9212 281.612 20.764 282.04 20.6592C282.468 20.5498 282.965 20.4951 283.53 20.4951H284.672ZM289.99 14.5V25H288.015V14.5H289.99ZM293.812 24.166L295.773 17.6035H297.886L294.912 26.1143C294.848 26.3011 294.762 26.5016 294.652 26.7158C294.548 26.93 294.404 27.1328 294.222 27.3242C294.044 27.5202 293.818 27.6797 293.545 27.8027C293.276 27.9258 292.946 27.9873 292.554 27.9873C292.367 27.9873 292.214 27.9759 292.096 27.9531C291.977 27.9303 291.836 27.8984 291.672 27.8574V26.415C291.722 26.415 291.774 26.415 291.829 26.415C291.884 26.4196 291.936 26.4219 291.986 26.4219C292.246 26.4219 292.458 26.3923 292.622 26.333C292.786 26.2738 292.918 26.1826 293.019 26.0596C293.119 25.9411 293.199 25.7861 293.258 25.5947L293.812 24.166ZM292.991 17.6035L294.598 22.9629L294.878 25.0479L293.538 25.1914L290.879 17.6035H292.991Z" fill="#252B4B"/>
</svg>
